<?xml version="1.0" encoding="utf-8"?>
<!-- Generator: Adobe Illustrator 26.0.1, SVG Export Plug-In . SVG Version: 6.00 Build 0)  -->
<svg version="1.1" id="Layer_1" xmlns="http://www.w3.org/2000/svg" xmlns:xlink="http://www.w3.org/1999/xlink" x="0px" y="0px"
	 viewBox="0 0 1201.55 1698.8" style="enable-background:new 0 0 1201.55 1698.8;" xml:space="preserve">
<style type="text/css">
	.st0{fill:#F1E8DA;}
	.st1{fill:url(#SVGID_1_);}
	.st2{fill:url(#SVGID_00000165216320119733129060000000692577691368111544_);}
	.st3{fill:url(#SVGID_00000168084674854857700200000000219921425847363988_);}
	.st4{fill:#0C1B2F;}
	.st5{opacity:0.44;}
	.st6{fill:url(#SVGID_00000133502798160926184220000009184977311523146371_);}
	.st7{fill:url(#SVGID_00000138569044260479519920000002007740334503078555_);}
	.st8{fill:url(#SVGID_00000018951660242443609550000002757402958664076932_);}
</style>
<g>
	<path class="st0" d="M4166.55,6.45c16.49-2.57,32.04-7.56,46.56-14.57c-2.11-3.66-4.48-7.23-7.39-10.62c-1,0-3,0-4,0c-1-2,1-6,0-8
		c-2-3-6-5-7-8c-4-12-16-22-19-33c-3-8-10-15-14-23c-1-2,1-6,0-8c-2-3-7-5-7-8c-1-10-6-18-9-28c-1-3,1-5,0-8c-1-2-3-2-4-4
		c-1-3,1-5,0-8c-1-2-3-2-4-4c-1-5,1-11,0-16c-1-2-3-2-4-4c-3-11,3-20-3-32c-3-7,0-16-1-24h-4c-1-44-4-88,2-132c1-9,0-18,2-28
		c1-2,3-3,4-4c1-5,0-10,4-16c1-2,0-5,0-8c1-3,3-5,4-8c1-5-2-12,1-15c3-5,2-9,3-13c1-2,3-2,4-4c1-3-1-6,0-8c14-27,26-53,41-80
		c5-9,12-17,15-28c1,0,3,0,4,0c5-7,7-14,11-21c3-6,8-12,11-18c7-16,17-33,28-48c3-3,7-11,10-17c1,0,3,0,4,0c-2-5,6-7,4-12
		c1,0,3,0,4,0c-2-5,4-8,5-11c16-29,34-56,53-84c7-9,13-26,22-37c1-2-1-6,0-8c1,0,3,0,4,0c0-10,7-19,12-28c1-2-1-5,0-8c1-2,3-2,4-4
		c1-3-1-6,0-8c5-8,7-16,9-24c2-3,2-8,3-12c1-2,3-2,4-4c1-3-1-5,0-8c1-2,3-2,4-4c1-4-1-8,0-12c1-2,3-2,4-4c2-5-3-9,3-17c3-3-2-8,4-16
		c3-3-1-8,4-16c3-6,0-15,1-23c1-1,3-2,4-4c1-7-1-13,3-20c2-3,0-8,1-12c1-2,3-3,4-4c1-8-2-17,1-23c4-7,1-14,3-21c1-2,3-2,4-4
		c1-8-1-15,3-24c2-5,0-11,1-16c1-2,3-2,4-4c1-5-1-11,1-16c0.61-3.04,1.58-5.72,2.26-8.92v-231.85
		c-20.03,51.12-35.57,103.56-45.26,159.77c0,1-2,2-3,3c0,3,0,6,0,9c-1,1-3,2-3,3c-1,5,0,10-2,15s0,10-1,15c0,1-2,2-3,3
		c-2,5,0,11-1,15c-16,73-32,140-59,207c-1,3,1,6,0,9c-13,23-17,48-33,69c-1,2,1,4,0,6c-3,4-6,7-7,12c-3,10-13,20-18,29
		c-17,31-37,57-56,88c-1,1-5,2-6,3c-5,12-15,19-21,30c-1,1-4,2-6,3c-21,26-39,50-63,72c-3,3-3,9-6,12c-20,20-35,42-51,66
		c-1,2,1,4,0,6c-13,20-24,42-34,63c-3,7-7,14-11,21c-1,2,1,4,0,6c-10,19-15,39-21,60c-1,4,1,8,0,12c-7,16-11,34-12,51c0,2-2,4-3,6
		c-1,6-1,12-2,18c-4,25-3,50,0,75c3,24,0,46,2,69c0,2,3,4,3,6c1,7-1,14,1,21s1,14,2,21c1,2,2,4,3,6c0,4-1,8,0,12c3,12,5,24,7,36
		c6,29,16,54,24,82c1.35,4.33,2.76,8.61,4.22,12.86c13.46,3.15,27.22,5.12,40.61,6.34C4101.55,10.45,4133.55,12.45,4166.55,6.45z"/>
	
		<linearGradient id="SVGID_1_" gradientUnits="userSpaceOnUse" x1="-282.9305" y1="1256.937" x2="419.2749" y2="1256.937" gradientTransform="matrix(-1 0 0 -1 4166.0513 528.8786)">
		<stop  offset="0.8056" style="stop-color:#F9DFCF"/>
		<stop  offset="1" style="stop-color:#FAD1B9"/>
	</linearGradient>
	<path class="st1" d="M3779.25-318.57c9.7,27.55,16.29,55.94,22.31,86.03c24,108,102,189,201,226c8.22,3.13,16.74,5.64,25.39,7.66
		c-1.45-4.24-2.86-8.53-4.22-12.86c-8-28-18-53-24-82c-2-12-4-24-7-36c-1-4,0-8,0-12c-1-2-2-4-3-6c-1-7,0-14-2-21s0-14-1-21
		c0-2-3-4-3-6c-2-23,1-45-2-69c-3-25-4-50,0-75c1-6,1-12,2-18c1-2,3-4,3-6c1-17,5-35,12-51c1-4-1-8,0-12c6-21,11-41,21-60
		c1-2-1-4,0-6c4-7,8-14,11-21c10-21,21-43,34-63c1-2-1-4,0-6c16-24,31-46,51-66c3-3,3-9,6-12c24-22,42-46,63-72c2-1,5-2,6-3
		c6-11,16-18,21-30c1-1,5-2,6-3c19-31,39-57,56-88c5-9,15-19,18-29c1-5,4-8,7-12c1-2-1-4,0-6c16-21,20-46,33-69c1-3-1-6,0-9
		c27-67,43-134,59-207c1-4-1-10,1-15c1-1,3-2,3-3c1-5-1-10,1-15s1-10,2-15c0-1,2-2,3-3c0-3,0-6,0-9c1-1,3-2,3-3
		c9.69-56.2,25.23-108.65,45.26-159.77v-45.73c-10.03,12.67-25.53,23.54-32.4,38.25c-5,11-16,21-25,30c-9,10-19,22-26,35
		c-1,2-5,2-7,4c-11,20-29,32-40,52c-0.85,0-2.43,0-3.5,0c-0.26,0.46-0.53,0.91-0.79,1.37c-0.04,2.08,1.09,4.82,0.29,5.63
		c-3.26,2.54-5.6,5.08-7.5,7.61c-2.98,5.74-5.81,11.58-8.48,17.53c0.24,1.45,0.46,2.88-0.02,3.85c-0.78,1.17-1.87,2.19-3.02,3.17
		c-1.68,4-3.29,8.05-4.81,12.16c-0.04,0.22-0.1,0.45-0.17,0.67c-0.05,0.1-0.11,0.17-0.17,0.26c-1.24,3.38-2.43,6.8-3.56,10.26
		c-0.02,0.47-0.1,0.95-0.28,1.47c-0.12,0.24-0.25,0.45-0.4,0.63c-2.44,7.67-4.61,15.53-6.46,23.62
		c-5.56,23.21-9.31,47.36-13.13,71.46c0.18,2.74,0.24,5.52-0.01,8.29c-0.39,0.39-0.93,0.78-1.51,1.23
		c-1.94,12.1-3.97,24.14-6.31,36.02c0.03,2.08-0.18,4.05-1.15,5.69c-0.8,3.86-1.64,7.71-2.52,11.52c0.15,1.88,0.25,3.64-0.5,5.53
		c-0.23,0-0.51,0-0.82,0c-12.35,50.24-33.57,95.72-83.04,126.25c-48,29-102,30-157,40c-18,3-35,8-54,11c-99,18-165,97-194,187
		c-31,96-18,195-3,295C3767.31-379.35,3773.14-348.83,3779.25-318.57z"/>
	<path class="st0" d="M4278.55-60.55c28-35,41-75,56-116c25-74,27-148,46-225c14.99-63.87,36.78-124.33,68.43-178.5v-599.61
		c-0.67,3.2-1.65,5.88-2.26,8.92c-2,5,0,11-1,16c-1,2-3,2-4,4c-1,5,1,11-1,16c-4,9-2,16-3,24c-1,2-3,2-4,4c-2,7,1,14-3,21
		c-3,6,0,15-1,23c-1,1-3,2-4,4c-1,4,1,9-1,12c-4,7-2,13-3,20c-1,2-3,3-4,4c-1,8,2,17-1,23c-5,8-1,13-4,16c-6,8-1,13-4,16
		c-6,8-1,12-3,17c-1,2-3,2-4,4c-1,4,1,8,0,12c-1,2-3,2-4,4c-1,3,1,5,0,8c-1,2-3,2-4,4c-1,4-1,9-3,12c-2,8-4,16-9,24c-1,2,1,5,0,8
		c-1,2-3,2-4,4c-1,3,1,6,0,8c-5,9-12,18-12,28c-1,0-3,0-4,0c-1,2,1,6,0,8c-9,11-15,28-22,37c-19,28-37,55-53,84c-1,3-7,6-5,11
		c-1,0-3,0-4,0c2,5-6,7-4,12c-1,0-3,0-4,0c-3,6-7,14-10,17c-11,15-21,32-28,48c-3,6-8,12-11,18c-4,7-6,14-11,21c-1,0-3,0-4,0
		c-3,11-10,19-15,28c-15,27-27,53-41,80c-1,2,1,5,0,8c-1,2-3,2-4,4c-1,4,0,8-3,13c-3,3,0,10-1,15c-1,3-3,5-4,8c0,3,1,6,0,8
		c-4,6-3,11-4,16c-1,1-3,2-4,4c-2,10-1,19-2,28c-6,44-3,88-2,132h4c1,8-2,17,1,24c6,12,0,21,3,32c1,2,3,2,4,4c1,5-1,11,0,16
		c1,2,3,2,4,4c1,3-1,5,0,8c1,2,3,2,4,4c1,3-1,5,0,8c3,10,8,18,9,28c0,3,5,5,7,8c1,2-1,6,0,8c4,8,11,15,14,23c3,11,15,21,19,33
		c1,3,5,5,7,8c1,2-1,6,0,8c1,0,3,0,4,0c2.91,3.39,5.28,6.96,7.39,10.62C4238.2-20.22,4260.18-38.37,4278.55-60.55z"/>
	
		<linearGradient id="SVGID_00000057113760461683628840000009991129619729585814_" gradientUnits="userSpaceOnUse" x1="90.8707" y1="292.5656" x2="90.8707" y2="1108.9269" gradientTransform="matrix(-1 0 0 -1 4166.0513 528.8786)">
		<stop  offset="0" style="stop-color:#B49175"/>
		<stop  offset="0.1442" style="stop-color:#CDAA8A"/>
		<stop  offset="0.2973" style="stop-color:#E2C09E"/>
		<stop  offset="0.4431" style="stop-color:#F1CFAC"/>
		<stop  offset="0.5727" style="stop-color:#F6D5B0"/>
		<stop  offset="1" style="stop-color:#FEEFDB"/>
	</linearGradient>
	<path style="fill:url(#SVGID_00000057113760461683628840000009991129619729585814_);" d="M3777.72,100.26
		c-22.27,47.62-44.56,95.23-76.34,136.05h475.9h271.71v-15.05v-801.31c-31.65,54.17-53.43,114.64-68.43,178.5c-19,77-21,151-46,225
		c-15,41-28,81-56,116c-18.37,22.17-40.36,40.32-65.44,52.43c-14.52,7.01-30.06,12-46.56,14.57c-33,6-65,4-98,1
		c-13.39-1.22-27.16-3.18-40.61-6.34c-8.65-2.03-17.17-4.54-25.39-7.66c-99-37-177-118-201-226c-6.02-30.09-12.6-58.48-22.31-86.03
		c11.21,55.54,23.36,110.22,30.48,167.84c7,62,2,121-9,184C3796.72,57.26,3788.72,79.26,3777.72,100.26z"/>
	
		<linearGradient id="SVGID_00000039127736292509159640000004146397061876951942_" gradientUnits="userSpaceOnUse" x1="317.8427" y1="1991.3629" x2="317.8427" y2="292.5656" gradientTransform="matrix(-1 0 0 -1 4166.0513 528.8786)">
		<stop  offset="0.256" style="stop-color:#F4ECDF"/>
		<stop  offset="1" style="stop-color:#F1E8DA"/>
	</linearGradient>
	<path style="fill:url(#SVGID_00000039127736292509159640000004146397061876951942_);" d="M3677.41,236.31h23.97
		c31.79-40.82,54.07-88.43,76.34-136.05c11-21,19-43,23-67c11-63,16-122,9-184c-11-89-34-171-47-260c-15-100-28-199,3-295
		c29-90,95-169,194-187c19-3,36-8,54-11c55-10,109-11,157-40c49.47-30.53,70.69-76.01,83.04-126.25c0.31,0,0.59,0,0.82,0
		c0.76-1.9,0.65-3.67,0.5-5.56c0,0.01,0,0.02,0,0.03c0.89-3.82,1.72-7.66,2.52-11.52c0.97-1.65,1.19-3.62,1.15-5.7c0,0,0,0,0,0
		c2.34-11.88,4.37-23.92,6.31-36.02c0.58-0.45,1.12-0.84,1.51-1.23c0.31-3.37,0.14-6.73-0.12-10.04c0.05,0.58,0.09,1.17,0.13,1.75
		c3.82-24.09,7.57-48.24,13.13-71.46c1.85-8.09,4.02-15.95,6.46-23.62c0.15-0.19,0.28-0.4,0.4-0.63c0.17-0.52,0.25-1,0.28-1.47v0
		c1.13-3.46,2.32-6.88,3.56-10.26l0,0c0.05-0.09,0.12-0.16,0.17-0.26c0.07-0.22,0.13-0.45,0.17-0.67c1.52-4.11,3.13-8.16,4.81-12.16
		c1.15-0.98,2.24-2,3.02-3.17c0.48-0.97,0.27-2.4,0.02-3.85c2.66-5.95,5.5-11.79,8.48-17.53c-1.82,2.43-3.24,4.86-4.67,7.29
		c2.91-4.97,5.78-9.94,12.16-14.91c0.81-0.81-0.33-3.57-0.27-5.66c0.26-0.45,0.51-0.89,0.77-1.34c1.07,0,2.64,0,3.5,0
		c11-20,29-32,40-52c2-2,6-2,7-4c7-13,17-25,26-35c9-9,20-19,25-30c6.86-14.71,22.37-25.58,32.4-38.25v-5.25H3247.44v1698.8H3677.41
		z"/>
	<g>
		<path class="st4" d="M3471.25-236.15C3468.45-232.38,3470.24-234.86,3471.25-236.15L3471.25-236.15z"/>
	</g>
</g>
<g class="st5">
	<path class="st0" d="M918.12,1470.94c16.49-2.57,32.04-7.56,46.56-14.57c-2.11-3.66-4.48-7.23-7.39-10.62c-1,0-3,0-4,0
		c-1-2,1-6,0-8c-2-3-6-5-7-8c-4-12-16-22-19-33c-3-8-10-15-14-23c-1-2,1-6,0-8c-2-3-7-5-7-8c-1-10-6-18-9-28c-1-3,1-5,0-8
		c-1-2-3-2-4-4c-1-3,1-5,0-8c-1-2-3-2-4-4c-1-5,1-11,0-16c-1-2-3-2-4-4c-3-11,3-20-3-32c-3-7,0-16-1-24h-4c-1-44-4-88,2-132
		c1-9,0-18,2-28c1-2,3-3,4-4c1-5,0-10,4-16c1-2,0-5,0-8c1-3,3-5,4-8c1-5-2-12,1-15c3-5,2-9,3-13c1-2,3-2,4-4c1-3-1-6,0-8
		c14-27,26-53,41-80c5-9,12-17,15-28c1,0,3,0,4,0c5-7,7-14,11-21c3-6,8-12,11-18c7-16,17-33,28-48c3-3,7-11,10-17c1,0,3,0,4,0
		c-2-5,6-7,4-12c1,0,3,0,4,0c-2-5,4-8,5-11c16-29,34-56,53-84c7-9,13-26,22-37c1-2-1-6,0-8c1,0,3,0,4,0c0-10,7-19,12-28c1-2-1-5,0-8
		c1-2,3-2,4-4c1-3-1-6,0-8c5-8,7-16,9-24c2-3,2-8,3-12c1-2,3-2,4-4c1-3-1-5,0-8c1-2,3-2,4-4c1-4-1-8,0-12c1-2,3-2,4-4c2-5-3-9,3-17
		c3-3-2-8,4-16c3-3-1-8,4-16c3-6,0-15,1-23c1-1,3-2,4-4c1-7-1-13,3-20c2-3,0-8,1-12c1-2,3-3,4-4c1-8-2-17,1-23c4-7,1-14,3-21
		c1-2,3-2,4-4c1-8-1-15,3-24c2-5,0-11,1-16c1-2,3-2,4-4c1-5-1-11,1-16c0.61-3.04,1.58-5.72,2.26-8.92V52.98
		c-20.03,51.12-35.57,103.56-45.26,159.77c0,1-2,2-3,3c0,3,0,6,0,9c-1,1-3,2-3,3c-1,5,0,10-2,15s0,10-1,15c0,1-2,2-3,3
		c-2,5,0,11-1,15c-16,73-32,140-59,207c-1,3,1,6,0,9c-13,23-17,48-33,69c-1,2,1,4,0,6c-3,4-6,7-7,12c-3,10-13,20-18,29
		c-17,31-37,57-56,88c-1,1-5,2-6,3c-5,12-15,19-21,30c-1,1-4,2-6,3c-21,26-39,50-63,72c-3,3-3,9-6,12c-20,20-35,42-51,66
		c-1,2,1,4,0,6c-13,20-24,42-34,63c-3,7-7,14-11,21c-1,2,1,4,0,6c-10,19-15,39-21,60c-1,4,1,8,0,12c-7,16-11,34-12,51c0,2-2,4-3,6
		c-1,6-1,12-2,18c-4,25-3,50,0,75c3,24,0,46,2,69c0,2,3,4,3,6c1,7-1,14,1,21s1,14,2,21c1,2,2,4,3,6c0,4-1,8,0,12c3,12,5,24,7,36
		c6,29,16,54,24,82c1.35,4.33,2.76,8.61,4.22,12.86c13.46,3.15,27.22,5.12,40.61,6.34C853.12,1474.94,885.12,1476.94,918.12,1470.94
		z"/>
	
		<linearGradient id="SVGID_00000183237888351851785820000017912716740481296534_" gradientUnits="userSpaceOnUse" x1="2965.5049" y1="-207.5473" x2="3667.7102" y2="-207.5473" gradientTransform="matrix(-1 0 0 -1 4166.0513 528.8786)">
		<stop  offset="0.8056" style="stop-color:#F9DFCF"/>
		<stop  offset="1" style="stop-color:#FAD1B9"/>
	</linearGradient>
	<path style="fill:url(#SVGID_00000183237888351851785820000017912716740481296534_);" d="M530.81,1145.91
		c9.7,27.55,16.29,55.94,22.31,86.03c24,108,102,189,201,226c8.21,3.13,16.74,5.64,25.39,7.66c-1.45-4.24-2.86-8.53-4.22-12.86
		c-8-28-18-53-24-82c-2-12-4-24-7-36c-1-4,0-8,0-12c-1-2-2-4-3-6c-1-7,0-14-2-21s0-14-1-21c0-2-3-4-3-6c-2-23,1-45-2-69
		c-3-25-4-50,0-75c1-6,1-12,2-18c1-2,3-4,3-6c1-17,5-35,12-51c1-4-1-8,0-12c6-21,11-41,21-60c1-2-1-4,0-6c4-7,8-14,11-21
		c10-21,21-43,34-63c1-2-1-4,0-6c16-24,31-46,51-66c3-3,3-9,6-12c24-22,42-46,63-72c2-1,5-2,6-3c6-11,16-18,21-30c1-1,5-2,6-3
		c19-31,39-57,56-88c5-9,15-19,18-29c1-5,4-8,7-12c1-2-1-4,0-6c16-21,20-46,33-69c1-3-1-6,0-9c27-67,43-134,59-207c1-4-1-10,1-15
		c1-1,3-2,3-3c1-5-1-10,1-15s1-10,2-15c0-1,2-2,3-3c0-3,0-6,0-9c1-1,3-2,3-3c9.69-56.2,25.23-108.65,45.26-159.77V7.25
		c-10.03,12.67-25.53,23.54-32.4,38.25c-5,11-16,21-25,30c-9,10-19,22-26,35c-1,2-5,2-7,4c-11,20-29,32-40,52c-0.85,0-2.43,0-3.5,0
		c-0.26,0.46-0.53,0.91-0.79,1.37c-0.04,2.08,1.09,4.82,0.29,5.63c-3.26,2.54-5.6,5.08-7.5,7.61c-2.98,5.74-5.81,11.58-8.48,17.53
		c0.24,1.45,0.46,2.88-0.02,3.85c-0.78,1.17-1.87,2.19-3.02,3.17c-1.68,4-3.29,8.05-4.81,12.16c-0.04,0.22-0.1,0.45-0.17,0.67
		c-0.05,0.1-0.11,0.17-0.17,0.26c-1.24,3.38-2.43,6.8-3.56,10.26c-0.02,0.47-0.1,0.96-0.28,1.47c-0.12,0.24-0.25,0.45-0.4,0.63
		c-2.44,7.67-4.61,15.53-6.46,23.62c-5.56,23.21-9.31,47.36-13.13,71.46c0.18,2.74,0.24,5.52-0.01,8.29
		c-0.39,0.39-0.93,0.78-1.51,1.23c-1.94,12.1-3.97,24.14-6.31,36.02c0.03,2.08-0.18,4.05-1.15,5.69c-0.8,3.86-1.64,7.71-2.52,11.52
		c0.15,1.88,0.25,3.64-0.5,5.53c-0.23,0-0.51,0-0.82,0c-12.35,50.24-33.57,95.72-83.04,126.25c-48,29-102,30-157,40
		c-18,3-35,8-54,11c-99,18-165,97-194,187c-31,96-18,195-3,295C518.87,1085.13,524.7,1115.65,530.81,1145.91z"/>
	<path class="st0" d="M1030.12,1403.94c28-35,41-75,56-116c25-74,27-148,46-225c14.99-63.87,36.78-124.33,68.43-178.5V284.83
		c-0.67,3.2-1.65,5.88-2.26,8.92c-2,5,0,11-1,16c-1,2-3,2-4,4c-1,5,1,11-1,16c-4,9-2,16-3,24c-1,2-3,2-4,4c-2,7,1,14-3,21
		c-3,6,0,15-1,23c-1,1-3,2-4,4c-1,4,1,9-1,12c-4,7-2,13-3,20c-1,2-3,3-4,4c-1,8,2,17-1,23c-5,8-1,13-4,16c-6,8-1,13-4,16
		c-6,8-1,12-3,17c-1,2-3,2-4,4c-1,4,1,8,0,12c-1,2-3,2-4,4c-1,3,1,5,0,8c-1,2-3,2-4,4c-1,4-1,9-3,12c-2,8-4,16-9,24c-1,2,1,5,0,8
		c-1,2-3,2-4,4c-1,3,1,6,0,8c-5,9-12,18-12,28c-1,0-3,0-4,0c-1,2,1,6,0,8c-9,11-15,28-22,37c-19,28-37,55-53,84c-1,3-7,6-5,11
		c-1,0-3,0-4,0c2,5-6,7-4,12c-1,0-3,0-4,0c-3,6-7,14-10,17c-11,15-21,32-28,48c-3,6-8,12-11,18c-4,7-6,14-11,21c-1,0-3,0-4,0
		c-3,11-10,19-15,28c-15,27-27,53-41,80c-1,2,1,5,0,8c-1,2-3,2-4,4c-1,4,0,8-3,13c-3,3,0,10-1,15c-1,3-3,5-4,8c0,3,1,6,0,8
		c-4,6-3,11-4,16c-1,1-3,2-4,4c-2,10-1,19-2,28c-6,44-3,88-2,132h4c1,8-2,17,1,24c6,12,0,21,3,32c1,2,3,2,4,4c1,5-1,11,0,16
		c1,2,3,2,4,4c1,3-1,5,0,8c1,2,3,2,4,4c1,3-1,5,0,8c3,10,8,18,9,28c0,3,5,5,7,8c1,2-1,6,0,8c4,8,11,15,14,23c3,11,15,21,19,33
		c1,3,5,5,7,8c1,2-1,6,0,8c1,0,3,0,4,0c2.91,3.39,5.28,6.96,7.39,10.62C989.76,1444.26,1011.75,1426.11,1030.12,1403.94z"/>
	
		<linearGradient id="SVGID_00000030447352500212116760000015049492031828536242_" gradientUnits="userSpaceOnUse" x1="3339.3062" y1="-1171.9188" x2="3339.3062" y2="-355.5575" gradientTransform="matrix(-1 0 0 -1 4166.0513 528.8786)">
		<stop  offset="0" style="stop-color:#B49175"/>
		<stop  offset="0.1442" style="stop-color:#CDAA8A"/>
		<stop  offset="0.2973" style="stop-color:#E2C09E"/>
		<stop  offset="0.4431" style="stop-color:#F1CFAC"/>
		<stop  offset="0.5727" style="stop-color:#F6D5B0"/>
		<stop  offset="1" style="stop-color:#FEEFDB"/>
	</linearGradient>
	<path style="fill:url(#SVGID_00000030447352500212116760000015049492031828536242_);" d="M529.29,1564.75
		c-22.27,47.62-44.56,95.23-76.34,136.05h475.9h271.71v-15.05V884.44c-31.65,54.17-53.43,114.64-68.43,178.5c-19,77-21,151-46,225
		c-15,41-28,81-56,116c-18.37,22.17-40.36,40.32-65.44,52.43c-14.52,7.01-30.06,12-46.56,14.57c-33,6-65,4-98,1
		c-13.39-1.22-27.16-3.18-40.61-6.34c-8.65-2.03-17.17-4.54-25.39-7.66c-99-37-177-118-201-226c-6.02-30.09-12.6-58.48-22.31-86.03
		c11.21,55.54,23.36,110.22,30.48,167.84c7,62,2,121-9,184C548.29,1521.75,540.29,1543.75,529.29,1564.75z"/>
	
		<linearGradient id="SVGID_00000019677786250485524040000015750483942867705986_" gradientUnits="userSpaceOnUse" x1="3566.2781" y1="526.8786" x2="3566.2781" y2="-1171.9188" gradientTransform="matrix(-1 0 0 -1 4166.0513 528.8786)">
		<stop  offset="0.256" style="stop-color:#F4ECDF"/>
		<stop  offset="1" style="stop-color:#F1E8DA"/>
	</linearGradient>
	<path style="fill:url(#SVGID_00000019677786250485524040000015750483942867705986_);" d="M428.97,1700.8h23.97
		c31.79-40.82,54.07-88.43,76.34-136.05c11-21,19-43,23-67c11-63,16-122,9-184c-11-89-34-171-47-260c-15-100-28-199,3-295
		c29-90,95-169,194-187c19-3,36-8,54-11c55-10,109-11,157-40c49.47-30.53,70.69-76.01,83.04-126.25c0.31,0,0.59,0,0.82,0
		c0.76-1.9,0.65-3.67,0.5-5.56c0,0.01,0,0.02,0,0.03c0.89-3.82,1.72-7.66,2.52-11.52c0.97-1.65,1.19-3.62,1.15-5.7c0,0,0,0,0,0
		c2.34-11.88,4.37-23.92,6.31-36.02c0.58-0.45,1.12-0.84,1.51-1.23c0.31-3.37,0.14-6.73-0.12-10.04c0.05,0.58,0.09,1.17,0.13,1.75
		c3.82-24.1,7.57-48.24,13.13-71.46c1.85-8.09,4.02-15.95,6.46-23.62c0.14-0.19,0.28-0.4,0.4-0.63c0.17-0.52,0.25-1,0.28-1.47v0
		c1.13-3.46,2.32-6.88,3.56-10.26l0,0c0.05-0.09,0.12-0.16,0.17-0.26c0.07-0.22,0.13-0.45,0.17-0.67c1.52-4.11,3.13-8.16,4.81-12.16
		c1.15-0.98,2.24-2,3.02-3.17c0.48-0.97,0.27-2.4,0.02-3.85c2.66-5.95,5.5-11.79,8.48-17.53c-1.82,2.43-3.24,4.86-4.66,7.29
		c2.91-4.97,5.78-9.94,12.16-14.91c0.81-0.81-0.33-3.57-0.27-5.66c0.26-0.45,0.51-0.89,0.77-1.34c1.07,0,2.64,0,3.5,0
		c11-20,29-32,40-52c2-2,6-2,7-4c7-13,17-25,26-35c9-9,20-19,25-30c6.86-14.71,22.37-25.58,32.4-38.25V2H-1v1698.8H428.97z"/>
	<g>
		<path class="st4" d="M222.82,1228.34C220.02,1232.1,221.8,1229.63,222.82,1228.34L222.82,1228.34z"/>
	</g>
</g>
</svg>
