<?xml version="1.0" encoding="utf-8"?>
<!-- Generator: Adobe Illustrator 26.0.1, SVG Export Plug-In . SVG Version: 6.00 Build 0)  -->
<svg version="1.1" id="Layer_1" xmlns="http://www.w3.org/2000/svg" xmlns:xlink="http://www.w3.org/1999/xlink" x="0px" y="0px"
	 viewBox="0 0 2000 2000" style="enable-background:new 0 0 2000 2000;" xml:space="preserve">
<style type="text/css">
	.st0{fill-rule:evenodd;clip-rule:evenodd;}
</style>
<g>
	<g>
		<g>
			<path d="M1000,336.9c-0.06,0-0.12,0-0.19,0c-20.37,0.06-36.52,16.6-35.67,33.27c1.1,21.65,14.11,35.76,35.47,35.86
				c0.13,0,0.26-0.01,0.4-0.01c21.88-0.07,35.68-14.07,35.63-36.21C1037.71,354.38,1021.29,336.94,1000,336.9z"/>
			<path d="M1000.6,58.43c-0.2-0.01-0.4,0-0.6-0.01c-12.03-0.53-21.21,8.23-21.4,19.89c-0.23,13.94,8.14,23.59,20.67,23.84
				c0.25,0,0.48-0.01,0.73-0.01c13.1-0.04,20.65-8.15,20.76-22.45C1022.07,66.29,1013.12,59.3,1000.6,58.43z"/>
			<path d="M1000.85,508.28c-0.28-0.02-0.57-0.03-0.85-0.03c-12.43-0.33-22.18,11.63-22.05,23.6
				c-0.19,11.96,10.51,23.16,22.05,23.19c0.1,0,0.19,0.01,0.29,0c11.25-0.16,21.81-11.08,21.87-22.6
				C1022.22,519.44,1012.7,509.12,1000.85,508.28z"/>
			<path d="M1105.15,423.71c17.99-0.17,31.28-13.38,30.55-31.29c-0.81-20.15-12.85-35.27-32.46-35.34
				c-20.6-0.08-33.92,12.2-33.95,31.48C1069.28,410.06,1083.41,423.92,1105.15,423.71z"/>
			<path d="M1075.31,342.76c1.71-1.94,2.95-4.3,4.73-6.15c11.16-11.62,24.04-18.57,40.75-14.15c4.62,1.22,9.18,2.74,13.65,4.43
				c17.33,6.56,28.1,27.84,20.36,48.07c-0.95,2.48-4.41,5.6-1.15,7.76c1.31,0.87,5.26-1.74,7.72-3.24c1.84-1.12,3.36-2.89,4.75-4.59
				c9.81-12.03,16.32-25.65,18.63-41.03c2.13-14.14,0.7-27.74-10.2-38.26c-12.57-12.13-26.48-21.86-44.39-19.62
				c-20.65-2-33.03,9.17-41.54,20.67c-7.17,9.69-11.4,20.77-14.45,32.32c-1.04,3.93-1.79,7.96-2.46,11.97
				c-0.16,0.96,0.5,2.05,0.78,3.08C1073.45,343.62,1074.69,343.46,1075.31,342.76z"/>
			<path d="M894.85,423.71c-17.99-0.17-31.27-13.38-30.55-31.29c0.81-20.15,12.85-35.27,32.46-35.34
				c20.6-0.08,33.92,12.2,33.94,31.48C930.72,410.06,916.59,423.92,894.85,423.71z"/>
			<path d="M924.69,342.76c-1.71-1.94-2.95-4.3-4.73-6.15c-11.16-11.62-24.04-18.57-40.75-14.15c-4.62,1.22-9.18,2.74-13.65,4.43
				c-17.33,6.56-28.1,27.84-20.36,48.07c0.95,2.48,4.41,5.6,1.15,7.76c-1.31,0.87-5.27-1.74-7.72-3.24
				c-1.84-1.12-3.36-2.89-4.75-4.59c-9.81-12.03-16.32-25.65-18.63-41.03c-2.13-14.14-0.7-27.74,10.2-38.26
				c12.57-12.13,26.48-21.86,44.39-19.62c20.65-2,33.03,9.17,41.54,20.67c7.17,9.69,11.4,20.77,14.45,32.32
				c1.04,3.93,1.79,7.96,2.46,11.97c0.16,0.96-0.5,2.05-0.78,3.08C926.55,343.62,925.31,343.46,924.69,342.76z"/>
			<path d="M1073.54,449.75c-4.57-2.35-9.27-4.86-14.21-5.97c-19.69-4.41-39.47-6.57-59.33-6.56c-19.86-0.01-39.64,2.14-59.33,6.56
				c-4.94,1.11-9.65,3.62-14.21,5.97c-2.82,1.45-2.65,3.8-0.73,6.49c5.59,7.82,11.03,15.75,16.25,23.82
				c1.86,2.87,3.87,4.34,9.36,2.83c7.38-1.05,16.9-2.41,26.42-3.77c7.44-1.06,14.85-1.5,22.24-1.47c7.39-0.03,14.8,0.41,22.24,1.47
				c9.52,1.36,19.04,2.71,26.42,3.77c5.49,1.5,7.5,0.04,9.36-2.83c5.23-8.06,10.67-16,16.25-23.82
				C1076.2,453.56,1076.36,451.2,1073.54,449.75z"/>
			<path d="M1046.84,230c-9.2-15.25-18.24-30.6-26.99-46.11c-6.75-11.98-12.49-24.46-16.02-37.84c-0.66-2.49-3.22-9.39-3.84-9.3
				c-0.62-0.1-3.18,6.81-3.84,9.3c-3.53,13.39-9.27,25.87-16.02,37.84c-8.74,15.51-17.79,30.86-26.99,46.11
				c-8.58,14.22-11.65,29.61-10.37,45.94c1.34,17.26,4.94,33.78,17.2,47.12c2.45,2.67,4.49,5.78,8.67,5.78
				c-0.67-3.15-1.13-6.35-2.04-9.42c-3.4-11.52-6.11-23.16-1.89-34.94c6.62-18.48,16.77-34.69,31.88-47.58
				c1.31-1.12,2.37-1.52,3.4-1.41c1.03-0.12,2.09,0.29,3.4,1.41c15.11,12.89,25.26,29.1,31.88,47.58
				c4.22,11.79,1.51,23.43-1.88,34.94c-0.91,3.07-1.37,6.28-2.04,9.42c4.18,0,6.22-3.12,8.67-5.78
				c12.26-13.34,15.85-29.87,17.2-47.12C1058.49,259.62,1055.42,244.23,1046.84,230z"/>
		</g>
		<g>
			<path d="M1468.88,531.12c-0.04-0.04-0.08-0.09-0.13-0.14c-14.44-14.36-37.57-14.09-48.75-1.7
				c-14.53,16.09-15.31,35.26-0.28,50.44c0.09,0.1,0.19,0.18,0.28,0.28c15.52,15.42,35.18,15.29,50.8-0.4
				C1483.19,570.14,1483.91,546.21,1468.88,531.12z"/>
			<path d="M1666.22,334.64c-0.13-0.15-0.28-0.29-0.42-0.44c-8.13-8.89-20.82-9.18-29.2-1.07c-10.02,9.69-10.92,22.44-2.24,31.47
				c0.17,0.18,0.35,0.33,0.53,0.51c9.29,9.23,20.36,8.83,30.56-1.19C1675.84,355.37,1674.45,344.1,1666.22,334.64z"/>
			<path d="M1348.29,652.9c-0.19-0.22-0.38-0.42-0.58-0.62c-8.56-9.02-23.91-7.46-32.28,1.09c-8.59,8.32-8.95,23.81-0.8,31.99
				c0.07,0.07,0.13,0.14,0.2,0.21c8.07,7.84,23.26,7.59,31.44-0.52C1355.52,675.91,1356.08,661.88,1348.29,652.9z"/>
			<path d="M1481.85,666.85c12.84,12.6,31.58,12.65,43.73-0.52c13.67-14.82,15.85-34.03,2.04-47.94
				c-14.51-14.62-32.62-15.36-46.26-1.74C1466.14,631.84,1466.33,651.63,1481.85,666.85z"/>
			<path d="M1518,588.51c2.58-0.16,5.13-0.95,7.69-1.01c16.11-0.33,30.13,3.87,38.82,18.81c2.4,4.13,4.55,8.43,6.52,12.79
				c7.62,16.89,0.18,39.55-19.6,48.38c-2.42,1.08-7.08,0.85-6.3,4.68c0.31,1.55,4.95,2.5,7.75,3.17c2.09,0.5,4.42,0.33,6.6,0.11
				c15.45-1.57,29.68-6.6,42.19-15.84c11.51-8.49,20.11-19.12,19.84-34.26c-0.31-17.46-3.26-34.18-17.51-45.26
				c-13.18-16.02-29.84-16.87-43.99-14.76c-11.92,1.78-22.75,6.63-33.08,12.63c-3.52,2.05-6.89,4.36-10.21,6.73
				c-0.79,0.56-1.1,1.8-1.63,2.73C1516.06,587.8,1517.06,588.58,1518,588.51z"/>
			<path d="M1333.15,518.15c-12.6-12.84-12.65-31.58,0.52-43.73c14.82-13.67,34.03-15.85,47.94-2.04
				c14.62,14.51,15.36,32.62,1.74,46.26C1368.17,533.86,1348.37,533.67,1333.15,518.15z"/>
			<path d="M1411.49,482.01c0.16-2.58,0.95-5.13,1.01-7.69c0.33-16.11-3.87-30.13-18.81-38.82c-4.13-2.4-8.43-4.55-12.79-6.52
				c-16.89-7.62-39.55-0.19-48.38,19.6c-1.08,2.42-0.85,7.07-4.68,6.3c-1.54-0.31-2.5-4.95-3.17-7.75c-0.5-2.09-0.33-4.42-0.11-6.6
				c1.57-15.45,6.6-29.68,15.84-42.19c8.49-11.51,19.12-20.11,34.26-19.84c17.46,0.31,34.18,3.26,45.26,17.51
				c16.02,13.18,16.87,29.84,14.76,43.99c-1.78,11.92-6.63,22.75-12.63,33.08c-2.05,3.52-4.36,6.89-6.73,10.21
				c-0.56,0.79-1.8,1.1-2.73,1.63C1412.2,483.94,1411.42,482.94,1411.49,482.01z"/>
			<path d="M1441.08,662.92c-1.57-4.89-3.12-9.99-5.83-14.27c-10.8-17.04-23.27-32.56-37.32-46.59
				c-14.03-14.05-29.54-26.52-46.59-37.32c-4.28-2.71-9.38-4.26-14.27-5.83c-3.01-0.97-4.56,0.81-5.1,4.07
				c-1.58,9.48-3.34,18.94-5.35,28.34c-0.71,3.35-0.33,5.8,4.62,8.62c5.96,4.48,13.65,10.25,21.34,16.02
				c6.01,4.51,11.56,9.44,16.76,14.69c5.24,5.2,10.18,10.75,14.69,16.76c5.77,7.69,11.54,15.38,16.02,21.34
				c2.82,4.94,5.27,5.33,8.62,4.62c9.4-2.01,18.85-3.77,28.34-5.35C1440.27,667.48,1442.05,665.94,1441.08,662.92z"/>
			<path d="M1577.59,488.65c4.28-17.29,8.74-34.54,13.52-51.69c3.69-13.24,8.46-26.13,15.43-38.08c1.3-2.22,4.37-8.92,3.86-9.29
				c-0.37-0.51-7.06,2.56-9.29,3.86c-11.96,6.97-24.84,11.74-38.08,15.43c-17.15,4.79-34.4,9.24-51.69,13.52
				c-16.12,3.99-29.18,12.71-39.82,25.15c-11.25,13.15-20.4,27.38-21.16,45.48c-0.15,3.61-0.91,7.26,2.04,10.22
				c1.75-2.7,3.69-5.29,5.22-8.1c5.74-10.55,12.06-20.69,23.38-26.04c17.75-8.39,36.38-12.67,56.18-11.1
				c1.72,0.14,2.75,0.6,3.4,1.41c0.81,0.64,1.27,1.68,1.41,3.4c1.57,19.8-2.71,38.43-11.1,56.18
				c-5.35,11.32-15.49,17.63-26.04,23.38c-2.82,1.53-5.41,3.47-8.1,5.22c2.95,2.96,6.6,2.2,10.22,2.04
				c18.1-0.77,32.33-9.91,45.48-21.16C1564.89,517.83,1573.6,504.78,1577.59,488.65z"/>
		</g>
		<g>
			<path d="M1663.1,1000c0-0.06,0.01-0.12,0-0.19c-0.06-20.37-16.6-36.52-33.27-35.67c-21.65,1.1-35.76,14.11-35.86,35.47
				c0,0.13,0.01,0.26,0.01,0.4c0.06,21.88,14.06,35.68,36.2,35.63C1645.62,1037.71,1663.06,1021.3,1663.1,1000z"/>
			<path d="M1941.57,1000.6c0.01-0.2,0-0.4,0.01-0.6c0.53-12.03-8.23-21.21-19.89-21.4c-13.94-0.23-23.59,8.14-23.84,20.67
				c-0.01,0.25,0.01,0.48,0.01,0.73c0.04,13.1,8.15,20.65,22.45,20.76C1933.71,1022.07,1940.7,1013.12,1941.57,1000.6z"/>
			<path d="M1491.71,1000.85c0.02-0.28,0.03-0.57,0.03-0.85c0.33-12.43-11.63-22.18-23.6-22.05c-11.96-0.19-23.17,10.51-23.19,22.05
				c0,0.1-0.01,0.19,0,0.29c0.16,11.25,11.08,21.81,22.6,21.86C1480.56,1022.22,1490.87,1012.7,1491.71,1000.85z"/>
			<path d="M1576.29,1105.15c0.17,17.99,13.38,31.27,31.29,30.55c20.15-0.81,35.27-12.85,35.34-32.46
				c0.08-20.6-12.2-33.92-31.48-33.94C1589.94,1069.28,1576.08,1083.41,1576.29,1105.15z"/>
			<path d="M1657.24,1075.31c1.94,1.71,4.3,2.95,6.15,4.73c11.62,11.16,18.57,24.04,14.15,40.75c-1.22,4.62-2.74,9.18-4.43,13.65
				c-6.56,17.33-27.84,28.1-48.07,20.36c-2.48-0.95-5.6-4.4-7.76-1.15c-0.87,1.31,1.74,5.27,3.24,7.72
				c1.12,1.84,2.89,3.36,4.59,4.75c12.03,9.81,25.65,16.32,41.03,18.63c14.14,2.13,27.74,0.7,38.25-10.2
				c12.13-12.57,21.86-26.48,19.62-44.39c2.01-20.65-9.17-33.03-20.67-41.54c-9.69-7.17-20.77-11.4-32.32-14.45
				c-3.94-1.04-7.96-1.78-11.97-2.46c-0.96-0.16-2.05,0.49-3.08,0.78C1656.38,1073.45,1656.53,1074.69,1657.24,1075.31z"/>
			<path d="M1576.29,894.85c0.17-17.99,13.38-31.27,31.29-30.55c20.15,0.81,35.27,12.85,35.34,32.46
				c0.08,20.6-12.2,33.92-31.48,33.94C1589.94,930.72,1576.08,916.59,1576.29,894.85z"/>
			<path d="M1657.24,924.69c1.94-1.71,4.3-2.95,6.15-4.73c11.62-11.16,18.57-24.04,14.15-40.75c-1.22-4.62-2.74-9.18-4.43-13.65
				c-6.56-17.33-27.84-28.1-48.07-20.36c-2.48,0.95-5.6,4.4-7.76,1.15c-0.87-1.31,1.74-5.27,3.24-7.72
				c1.12-1.84,2.89-3.36,4.59-4.75c12.03-9.81,25.65-16.32,41.03-18.63c14.14-2.13,27.74-0.7,38.25,10.2
				c12.13,12.57,21.86,26.48,19.62,44.39c2.01,20.65-9.17,33.03-20.67,41.54c-9.69,7.17-20.77,11.4-32.32,14.45
				c-3.94,1.04-7.96,1.78-11.97,2.46c-0.96,0.16-2.05-0.49-3.08-0.78C1656.38,926.56,1656.53,925.31,1657.24,924.69z"/>
			<path d="M1550.24,1073.54c2.35-4.57,4.86-9.27,5.96-14.21c4.42-19.69,6.57-39.47,6.56-59.33c0.01-19.86-2.14-39.64-6.56-59.33
				c-1.11-4.94-3.62-9.65-5.96-14.21c-1.45-2.81-3.8-2.65-6.49-0.73c-7.82,5.59-15.75,11.03-23.82,16.25
				c-2.87,1.86-4.34,3.87-2.83,9.36c1.05,7.38,2.41,16.9,3.76,26.42c1.06,7.44,1.5,14.85,1.47,22.24c0.03,7.39-0.41,14.8-1.47,22.24
				c-1.36,9.52-2.71,19.04-3.76,26.42c-1.5,5.49-0.04,7.5,2.83,9.36c8.06,5.23,16,10.67,23.82,16.25
				C1546.44,1076.2,1548.79,1076.36,1550.24,1073.54z"/>
			<path d="M1770,1046.84c15.25-9.2,30.6-18.24,46.11-26.99c11.98-6.75,24.46-12.49,37.84-16.02c2.49-0.65,9.39-3.22,9.3-3.84
				c0.1-0.62-6.81-3.18-9.3-3.84c-13.38-3.53-25.87-9.27-37.84-16.02c-15.51-8.74-30.86-17.79-46.11-26.99
				c-14.22-8.58-29.61-11.65-45.94-10.38c-17.26,1.35-33.78,4.94-47.12,17.2c-2.67,2.45-5.78,4.49-5.78,8.67
				c3.14-0.67,6.35-1.13,9.42-2.04c11.52-3.4,23.16-6.1,34.94-1.88c18.48,6.61,34.69,16.77,47.58,31.87
				c1.12,1.31,1.52,2.37,1.41,3.4c0.12,1.03-0.29,2.09-1.41,3.4c-12.89,15.11-29.1,25.26-47.58,31.87
				c-11.79,4.22-23.43,1.52-34.94-1.88c-3.08-0.91-6.28-1.37-9.42-2.04c0,4.18,3.11,6.22,5.78,8.67
				c13.34,12.26,29.87,15.85,47.12,17.2C1740.38,1058.49,1755.77,1055.42,1770,1046.84z"/>
		</g>
		<g>
			<path d="M1468.88,1468.88c0.04-0.04,0.09-0.08,0.13-0.13c14.36-14.44,14.09-37.57,1.7-48.75c-16.09-14.53-35.26-15.31-50.44-0.28
				c-0.09,0.09-0.18,0.19-0.27,0.28c-15.42,15.52-15.29,35.18,0.4,50.8C1429.86,1483.19,1453.79,1483.91,1468.88,1468.88z"/>
			<path d="M1665.36,1666.22c0.16-0.13,0.29-0.28,0.44-0.42c8.88-8.13,9.18-20.82,1.07-29.2c-9.69-10.02-22.44-10.93-31.47-2.24
				c-0.18,0.17-0.33,0.35-0.51,0.53c-9.23,9.29-8.83,20.36,1.19,30.56C1644.63,1675.84,1655.9,1674.45,1665.36,1666.22z"/>
			<path d="M1347.09,1348.3c0.22-0.19,0.42-0.38,0.62-0.58c9.02-8.56,7.46-23.91-1.09-32.28c-8.32-8.59-23.82-8.95-31.99-0.8
				c-0.07,0.07-0.14,0.13-0.21,0.2c-7.84,8.07-7.58,23.26,0.52,31.44C1324.09,1355.52,1338.12,1356.08,1347.09,1348.3z"/>
			<path d="M1333.14,1481.85c-12.6,12.84-12.65,31.58,0.52,43.73c14.82,13.67,34.03,15.85,47.95,2.04
				c14.62-14.51,15.36-32.61,1.74-46.26C1368.16,1466.14,1348.37,1466.33,1333.14,1481.85z"/>
			<path d="M1411.48,1517.99c0.16,2.58,0.95,5.13,1.01,7.7c0.33,16.11-3.87,30.13-18.81,38.82c-4.13,2.4-8.43,4.55-12.79,6.51
				c-16.89,7.62-39.55,0.19-48.38-19.59c-1.08-2.42-0.85-7.07-4.68-6.3c-1.55,0.31-2.5,4.95-3.17,7.75
				c-0.5,2.09-0.34,4.42-0.11,6.61c1.57,15.44,6.6,29.67,15.84,42.19c8.49,11.51,19.12,20.11,34.26,19.84
				c17.46-0.31,34.18-3.26,45.26-17.51c16.02-13.18,16.87-29.84,14.76-43.99c-1.78-11.92-6.63-22.75-12.63-33.08
				c-2.05-3.52-4.37-6.89-6.73-10.21c-0.56-0.79-1.8-1.1-2.73-1.63C1412.19,1516.06,1411.42,1517.06,1411.48,1517.99z"/>
			<path d="M1481.85,1333.15c12.84-12.6,31.58-12.65,43.73,0.52c13.67,14.82,15.85,34.03,2.04,47.94
				c-14.51,14.62-32.62,15.36-46.26,1.74C1466.13,1368.17,1466.33,1348.37,1481.85,1333.15z"/>
			<path d="M1517.99,1411.49c2.58,0.16,5.12,0.95,7.7,1.01c16.11,0.33,30.13-3.87,38.82-18.81c2.4-4.13,4.55-8.43,6.52-12.78
				c7.62-16.89,0.19-39.55-19.59-48.38c-2.42-1.08-7.08-0.85-6.3-4.68c0.31-1.54,4.95-2.5,7.75-3.17c2.09-0.5,4.42-0.33,6.61-0.11
				c15.45,1.57,29.68,6.6,42.19,15.84c11.51,8.49,20.11,19.12,19.84,34.26c-0.31,17.46-3.26,34.18-17.51,45.26
				c-13.18,16.02-29.84,16.88-43.99,14.76c-11.92-1.78-22.75-6.63-33.07-12.63c-3.52-2.05-6.89-4.37-10.21-6.73
				c-0.79-0.56-1.1-1.8-1.63-2.73C1516.06,1412.2,1517.05,1411.43,1517.99,1411.49z"/>
			<path d="M1337.07,1441.09c4.89-1.57,9.99-3.12,14.27-5.83c17.04-10.8,32.56-23.27,46.59-37.32
				c14.05-14.03,26.52-29.54,37.32-46.59c2.71-4.28,4.26-9.38,5.83-14.27c0.97-3.01-0.81-4.56-4.07-5.1
				c-9.48-1.58-18.94-3.34-28.33-5.35c-3.35-0.71-5.8-0.33-8.62,4.62c-4.48,5.96-10.25,13.65-16.02,21.34
				c-4.51,6.01-9.44,11.56-14.69,16.76c-5.21,5.24-10.75,10.18-16.76,14.69c-7.69,5.77-15.38,11.54-21.34,16.02
				c-4.94,2.82-5.33,5.27-4.62,8.62c2.01,9.4,3.77,18.85,5.35,28.33C1332.51,1440.27,1334.06,1442.05,1337.07,1441.09z"/>
			<path d="M1511.34,1577.59c17.29,4.28,34.54,8.74,51.69,13.52c13.24,3.69,26.13,8.46,38.08,15.43c2.22,1.3,8.92,4.37,9.29,3.86
				c0.51-0.37-2.56-7.06-3.86-9.29c-6.97-11.96-11.74-24.84-15.43-38.08c-4.79-17.15-9.24-34.41-13.52-51.69
				c-3.99-16.12-12.71-29.18-25.15-39.82c-13.15-11.25-27.38-20.4-45.48-21.16c-3.61-0.15-7.26-0.91-10.22,2.04
				c2.69,1.75,5.29,3.69,8.1,5.22c10.55,5.74,20.69,12.06,26.04,23.38c8.39,17.74,12.67,36.38,11.1,56.18
				c-0.13,1.72-0.6,2.76-1.41,3.4c-0.64,0.81-1.68,1.27-3.4,1.41c-19.79,1.57-38.43-2.71-56.18-11.1
				c-11.32-5.35-17.64-15.49-23.38-26.04c-1.53-2.82-3.47-5.41-5.22-8.1c-2.96,2.95-2.2,6.6-2.04,10.22
				c0.77,18.1,9.91,32.33,21.16,45.48C1482.17,1564.89,1495.22,1573.6,1511.34,1577.59z"/>
		</g>
		<g>
			<path d="M1000,1663.1c0.06,0,0.12,0.01,0.19,0c20.37-0.06,36.53-16.6,35.67-33.27c-1.1-21.65-14.11-35.76-35.46-35.86
				c-0.13,0-0.26,0.01-0.4,0.01c-21.88,0.07-35.68,14.06-35.63,36.2C962.29,1645.62,978.7,1663.06,1000,1663.1z"/>
			<path d="M999.39,1941.57c0.2,0.02,0.4,0,0.6,0.01c12.03,0.53,21.21-8.23,21.4-19.89c0.23-13.94-8.14-23.59-20.67-23.84
				c-0.25,0-0.48,0.01-0.73,0.01c-13.1,0.04-20.64,8.15-20.76,22.45C977.93,1933.71,986.88,1940.7,999.39,1941.57z"/>
			<path d="M999.15,1491.72c0.29,0.02,0.57,0.03,0.85,0.03c12.43,0.33,22.18-11.63,22.05-23.6c0.19-11.96-10.51-23.17-22.05-23.19
				c-0.1,0-0.19-0.01-0.29-0.01c-11.25,0.16-21.81,11.08-21.86,22.6C977.78,1480.56,987.3,1490.88,999.15,1491.72z"/>
			<path d="M894.84,1576.29c-17.99,0.17-31.28,13.38-30.56,31.29c0.81,20.15,12.86,35.27,32.46,35.34
				c20.6,0.08,33.92-12.2,33.94-31.48C930.72,1589.94,916.59,1576.08,894.84,1576.29z"/>
			<path d="M924.68,1657.24c-1.71,1.94-2.95,4.3-4.73,6.15c-11.16,11.62-24.04,18.57-40.75,14.15c-4.62-1.22-9.18-2.74-13.65-4.43
				c-17.33-6.56-28.1-27.84-20.36-48.07c0.95-2.48,4.4-5.6,1.15-7.76c-1.31-0.87-5.27,1.74-7.72,3.24
				c-1.84,1.12-3.36,2.89-4.75,4.59c-9.81,12.03-16.32,25.65-18.64,41.03c-2.13,14.14-0.7,27.74,10.2,38.25
				c12.57,12.13,26.48,21.86,44.39,19.62c20.65,2,33.03-9.17,41.54-20.67c7.17-9.69,11.4-20.77,14.46-32.32
				c1.04-3.94,1.78-7.96,2.46-11.97c0.16-0.96-0.49-2.05-0.78-3.08C926.55,1656.38,925.3,1656.54,924.68,1657.24z"/>
			<path d="M1105.15,1576.29c17.99,0.17,31.27,13.38,30.55,31.29c-0.81,20.15-12.85,35.27-32.46,35.34
				c-20.6,0.08-33.92-12.2-33.94-31.48C1069.27,1589.94,1083.4,1576.08,1105.15,1576.29z"/>
			<path d="M1075.31,1657.24c1.71,1.94,2.95,4.3,4.73,6.16c11.16,11.62,24.04,18.56,40.75,14.15c4.62-1.22,9.18-2.74,13.65-4.43
				c17.33-6.56,28.1-27.84,20.36-48.07c-0.95-2.48-4.4-5.6-1.15-7.76c1.31-0.87,5.27,1.74,7.72,3.24c1.84,1.12,3.36,2.89,4.75,4.59
				c9.81,12.03,16.32,25.65,18.64,41.03c2.13,14.14,0.7,27.74-10.2,38.25c-12.57,12.13-26.48,21.86-44.39,19.62
				c-20.65,2-33.03-9.17-41.54-20.67c-7.17-9.69-11.4-20.77-14.45-32.32c-1.04-3.94-1.78-7.96-2.46-11.97
				c-0.16-0.96,0.49-2.05,0.78-3.08C1073.44,1656.38,1074.69,1656.54,1075.31,1657.24z"/>
			<path d="M926.45,1550.24c4.57,2.35,9.27,4.86,14.21,5.97c19.69,4.42,39.47,6.57,59.33,6.56c19.85,0.01,39.64-2.14,59.33-6.56
				c4.94-1.11,9.65-3.62,14.21-5.97c2.81-1.45,2.65-3.8,0.73-6.48c-5.59-7.82-11.03-15.75-16.25-23.82
				c-1.86-2.87-3.87-4.34-9.36-2.83c-7.38,1.05-16.9,2.41-26.42,3.77c-7.44,1.06-14.85,1.5-22.24,1.47
				c-7.39,0.03-14.8-0.41-22.24-1.47c-9.52-1.36-19.04-2.72-26.42-3.77c-5.49-1.5-7.5-0.04-9.36,2.83
				c-5.23,8.07-10.67,16-16.25,23.82C923.8,1546.44,923.64,1548.8,926.45,1550.24z"/>
			<path d="M953.15,1770c9.2,15.25,18.24,30.6,26.99,46.11c6.75,11.98,12.49,24.46,16.02,37.84c0.65,2.49,3.22,9.39,3.84,9.3
				c0.62,0.1,3.18-6.81,3.84-9.3c3.53-13.38,9.26-25.86,16.02-37.84c8.74-15.51,17.79-30.86,26.99-46.11
				c8.58-14.22,11.65-29.61,10.37-45.94c-1.34-17.26-4.94-33.78-17.2-47.12c-2.45-2.66-4.49-5.78-8.67-5.78
				c0.67,3.15,1.13,6.35,2.04,9.43c3.4,11.52,6.1,23.16,1.89,34.94c-6.61,18.48-16.77,34.69-31.88,47.58
				c-1.31,1.12-2.37,1.53-3.4,1.41c-1.03,0.12-2.09-0.29-3.4-1.41c-15.11-12.89-25.26-29.09-31.87-47.58
				c-4.22-11.79-1.51-23.43,1.88-34.94c0.91-3.07,1.37-6.28,2.04-9.42c-4.18,0-6.22,3.11-8.67,5.78
				c-12.26,13.34-15.85,29.87-17.2,47.12C941.51,1740.38,944.58,1755.77,953.15,1770z"/>
		</g>
		<g>
			<path d="M531.11,1468.88c0.04,0.04,0.08,0.09,0.13,0.13c14.44,14.36,37.57,14.09,48.75,1.7c14.53-16.09,15.31-35.26,0.28-50.44
				c-0.09-0.09-0.19-0.18-0.28-0.27c-15.52-15.42-35.18-15.29-50.8,0.4C516.81,1429.86,516.08,1453.79,531.11,1468.88z"/>
			<path d="M333.78,1665.36c0.13,0.16,0.28,0.29,0.42,0.44c8.13,8.88,20.82,9.17,29.2,1.07c10.02-9.69,10.93-22.44,2.24-31.47
				c-0.17-0.18-0.35-0.33-0.53-0.51c-9.29-9.23-20.36-8.83-30.56,1.19C324.16,1644.63,325.55,1655.9,333.78,1665.36z"/>
			<path d="M651.7,1347.1c0.19,0.21,0.38,0.42,0.58,0.62c8.56,9.03,23.91,7.46,32.28-1.09c8.59-8.32,8.95-23.82,0.81-31.99
				c-0.07-0.07-0.13-0.14-0.2-0.21c-8.07-7.84-23.26-7.58-31.44,0.52C644.48,1324.09,643.92,1338.12,651.7,1347.1z"/>
			<path d="M518.14,1333.15c-12.84-12.6-31.58-12.65-43.73,0.52c-13.67,14.82-15.85,34.03-2.04,47.95
				c14.51,14.62,32.61,15.36,46.26,1.74C533.86,1368.16,533.67,1348.37,518.14,1333.15z"/>
			<path d="M482,1411.48c-2.58,0.17-5.13,0.95-7.7,1.01c-16.11,0.33-30.13-3.87-38.82-18.81c-2.4-4.13-4.55-8.43-6.52-12.79
				c-7.62-16.89-0.19-39.56,19.6-48.38c2.42-1.08,7.07-0.85,6.3-4.68c-0.31-1.55-4.95-2.5-7.75-3.17c-2.09-0.5-4.42-0.34-6.61-0.11
				c-15.44,1.57-29.67,6.6-42.19,15.84c-11.51,8.49-20.11,19.12-19.83,34.26c0.31,17.46,3.26,34.18,17.51,45.26
				c13.18,16.02,29.84,16.87,43.99,14.76c11.92-1.78,22.75-6.63,33.07-12.63c3.52-2.05,6.89-4.37,10.2-6.73
				c0.79-0.56,1.1-1.8,1.63-2.73C483.94,1412.19,482.94,1411.42,482,1411.48z"/>
			<path d="M666.85,1481.85c12.6,12.84,12.65,31.58-0.52,43.73c-14.82,13.68-34.03,15.85-47.94,2.04
				c-14.62-14.51-15.36-32.61-1.74-46.26C631.83,1466.13,651.62,1466.33,666.85,1481.85z"/>
			<path d="M588.51,1517.99c-0.16,2.58-0.95,5.12-1.01,7.7c-0.33,16.11,3.87,30.13,18.81,38.82c4.13,2.4,8.43,4.55,12.78,6.52
				c16.89,7.62,39.55,0.19,48.38-19.59c1.08-2.42,0.85-7.08,4.68-6.3c1.54,0.31,2.5,4.95,3.17,7.75c0.5,2.09,0.33,4.42,0.11,6.61
				c-1.57,15.45-6.6,29.68-15.84,42.19c-8.49,11.51-19.12,20.11-34.26,19.84c-17.46-0.31-34.18-3.26-45.26-17.51
				c-16.02-13.18-16.87-29.84-14.76-43.99c1.78-11.92,6.63-22.75,12.63-33.07c2.05-3.52,4.36-6.89,6.73-10.21
				c0.56-0.79,1.8-1.1,2.73-1.63C587.8,1516.06,588.57,1517.05,588.51,1517.99z"/>
			<path d="M558.91,1337.08c1.57,4.89,3.12,9.99,5.83,14.27c10.8,17.05,23.27,32.56,37.32,46.59
				c14.03,14.05,29.54,26.51,46.59,37.32c4.28,2.71,9.38,4.26,14.27,5.83c3.01,0.97,4.56-0.81,5.1-4.07
				c1.58-9.48,3.34-18.94,5.35-28.33c0.71-3.35,0.33-5.8-4.62-8.62c-5.96-4.48-13.65-10.25-21.35-16.02
				c-6.01-4.51-11.56-9.44-16.76-14.69c-5.24-5.2-10.18-10.75-14.69-16.76c-5.77-7.69-11.54-15.38-16.02-21.35
				c-2.82-4.94-5.27-5.33-8.62-4.62c-9.4,2.01-18.85,3.77-28.33,5.35C559.73,1332.51,557.94,1334.06,558.91,1337.08z"/>
			<path d="M422.41,1511.34c-4.28,17.29-8.74,34.54-13.53,51.69c-3.7,13.24-8.46,26.13-15.43,38.08c-1.3,2.22-4.37,8.92-3.86,9.29
				c0.37,0.51,7.06-2.56,9.29-3.86c11.96-6.97,24.84-11.74,38.08-15.43c17.15-4.79,34.4-9.24,51.69-13.52
				c16.12-3.99,29.17-12.7,39.82-25.15c11.25-13.15,20.4-27.38,21.16-45.48c0.15-3.61,0.91-7.26-2.04-10.22
				c-1.75,2.7-3.69,5.29-5.23,8.11c-5.74,10.55-12.06,20.69-23.38,26.04c-17.74,8.39-36.39,12.67-56.18,11.1
				c-1.72-0.14-2.76-0.6-3.4-1.41c-0.81-0.65-1.27-1.68-1.41-3.4c-1.57-19.79,2.71-38.43,11.1-56.18
				c5.35-11.32,15.49-17.64,26.04-23.38c2.82-1.53,5.41-3.47,8.1-5.22c-2.95-2.95-6.6-2.2-10.21-2.04
				c-18.1,0.77-32.33,9.91-45.48,21.16C435.11,1482.17,426.4,1495.22,422.41,1511.34z"/>
		</g>
		<g>
			<path d="M336.9,1000c0,0.06,0,0.12,0,0.19c0.06,20.37,16.6,36.53,33.27,35.68c21.65-1.1,35.76-14.11,35.87-35.46
				c0-0.13-0.01-0.26-0.01-0.4c-0.07-21.88-14.06-35.68-36.2-35.63C354.38,962.29,336.94,978.7,336.9,1000z"/>
			<path d="M58.43,999.4c-0.02,0.2,0,0.4-0.02,0.6c-0.53,12.03,8.24,21.21,19.89,21.4c13.94,0.23,23.59-8.14,23.84-20.67
				c0-0.25-0.01-0.48-0.01-0.73c-0.04-13.1-8.15-20.64-22.45-20.76C66.29,977.93,59.3,986.88,58.43,999.4z"/>
			<path d="M508.28,999.15c-0.02,0.29-0.03,0.57-0.03,0.85c-0.33,12.44,11.64,22.18,23.6,22.05c11.96,0.19,23.17-10.51,23.19-22.05
				c0-0.1,0-0.19,0-0.29c-0.16-11.25-11.08-21.81-22.6-21.87C519.44,977.78,509.12,987.3,508.28,999.15z"/>
			<path d="M423.71,894.85c-0.17-17.99-13.38-31.28-31.29-30.56c-20.15,0.81-35.27,12.86-35.34,32.46
				c-0.08,20.6,12.2,33.92,31.48,33.94C410.06,930.72,423.92,916.59,423.71,894.85z"/>
			<path d="M342.76,924.68c-1.94-1.71-4.3-2.95-6.15-4.73c-11.62-11.16-18.57-24.04-14.15-40.75c1.22-4.62,2.74-9.18,4.43-13.65
				c6.56-17.33,27.84-28.1,48.07-20.36c2.48,0.95,5.6,4.4,7.76,1.15c0.87-1.32-1.74-5.27-3.24-7.72c-1.12-1.84-2.89-3.36-4.59-4.75
				c-12.03-9.81-25.65-16.32-41.04-18.64c-14.14-2.13-27.74-0.7-38.25,10.2c-12.13,12.57-21.87,26.48-19.62,44.39
				c-2,20.65,9.17,33.03,20.67,41.54c9.69,7.17,20.77,11.4,32.32,14.45c3.94,1.04,7.96,1.79,11.97,2.46
				c0.96,0.16,2.05-0.49,3.08-0.78C343.62,926.55,343.46,925.3,342.76,924.68z"/>
			<path d="M423.71,1105.15c-0.17,17.99-13.38,31.27-31.29,30.55c-20.15-0.81-35.27-12.85-35.34-32.46
				c-0.08-20.6,12.2-33.92,31.48-33.94C410.06,1069.27,423.92,1083.41,423.71,1105.15z"/>
			<path d="M342.76,1075.31c-1.94,1.71-4.3,2.95-6.16,4.73c-11.62,11.16-18.57,24.04-14.15,40.75c1.22,4.62,2.74,9.18,4.43,13.65
				c6.56,17.33,27.84,28.1,48.07,20.35c2.48-0.95,5.6-4.4,7.76-1.15c0.87,1.31-1.74,5.27-3.24,7.72c-1.12,1.84-2.89,3.36-4.59,4.75
				c-12.03,9.81-25.65,16.32-41.04,18.64c-14.14,2.13-27.74,0.7-38.25-10.2c-12.12-12.57-21.86-26.47-19.62-44.39
				c-2.01-20.65,9.17-33.03,20.67-41.54c9.69-7.17,20.77-11.4,32.32-14.45c3.94-1.04,7.96-1.78,11.97-2.46
				c0.96-0.16,2.05,0.49,3.09,0.78C343.62,1073.44,343.46,1074.69,342.76,1075.31z"/>
			<path d="M449.75,926.45c-2.35,4.57-4.86,9.27-5.97,14.21c-4.42,19.69-6.57,39.47-6.56,59.33c-0.01,19.85,2.14,39.64,6.56,59.33
				c1.11,4.94,3.62,9.65,5.97,14.21c1.45,2.81,3.8,2.65,6.48,0.73c7.82-5.59,15.75-11.03,23.82-16.25c2.87-1.86,4.34-3.87,2.83-9.36
				c-1.05-7.38-2.41-16.9-3.77-26.42c-1.06-7.44-1.5-14.85-1.47-22.24c-0.03-7.39,0.41-14.8,1.47-22.24
				c1.36-9.52,2.72-19.04,3.77-26.42c1.5-5.49,0.04-7.5-2.83-9.36c-8.06-5.23-16-10.66-23.82-16.25
				C453.55,923.8,451.2,923.64,449.75,926.45z"/>
			<path d="M230,953.16c-15.25,9.2-30.6,18.24-46.11,26.99c-11.98,6.75-24.46,12.49-37.84,16.02c-2.49,0.66-9.39,3.22-9.3,3.84
				c-0.1,0.62,6.81,3.18,9.3,3.83c13.38,3.53,25.86,9.26,37.84,16.02c15.51,8.75,30.86,17.79,46.11,26.99
				c14.22,8.58,29.61,11.65,45.94,10.37c17.26-1.34,33.79-4.94,47.12-17.2c2.66-2.45,5.78-4.49,5.78-8.67
				c-3.15,0.67-6.35,1.13-9.43,2.04c-11.52,3.4-23.15,6.1-34.94,1.89c-18.48-6.62-34.68-16.77-47.58-31.88
				c-1.12-1.31-1.52-2.37-1.41-3.4c-0.12-1.03,0.29-2.09,1.41-3.4c12.89-15.11,29.09-25.26,47.58-31.87
				c11.79-4.22,23.43-1.52,34.94,1.88c3.07,0.91,6.28,1.37,9.42,2.04c0-4.18-3.11-6.22-5.78-8.67
				c-13.34-12.26-29.87-15.85-47.12-17.2C259.62,941.51,244.23,944.58,230,953.16z"/>
		</g>
		<g>
			<path d="M531.11,531.11c-0.04,0.04-0.09,0.08-0.13,0.13c-14.36,14.44-14.09,37.57-1.7,48.75c16.09,14.53,35.27,15.31,50.44,0.28
				c0.09-0.09,0.18-0.19,0.28-0.29c15.42-15.52,15.29-35.18-0.4-50.8C570.14,516.81,546.2,516.08,531.11,531.11z"/>
			<path d="M334.63,333.78c-0.15,0.13-0.29,0.28-0.44,0.42c-8.88,8.13-9.18,20.82-1.07,29.2c9.69,10.02,22.44,10.93,31.47,2.24
				c0.18-0.18,0.33-0.35,0.51-0.53c9.23-9.29,8.83-20.36-1.19-30.56C355.37,324.16,344.1,325.55,334.63,333.78z"/>
			<path d="M652.9,651.7c-0.22,0.19-0.42,0.38-0.62,0.58c-9.03,8.56-7.46,23.91,1.09,32.28c8.32,8.59,23.82,8.95,31.99,0.8
				c0.07-0.07,0.14-0.13,0.21-0.2c7.84-8.07,7.59-23.26-0.52-31.44C675.9,644.48,661.88,643.92,652.9,651.7z"/>
			<path d="M666.85,518.14c12.6-12.84,12.65-31.58-0.52-43.73c-14.82-13.67-34.03-15.85-47.94-2.04
				c-14.62,14.51-15.36,32.61-1.75,46.26C631.83,533.86,651.63,533.67,666.85,518.14z"/>
			<path d="M588.51,482.01c-0.17-2.58-0.95-5.13-1.01-7.7c-0.33-16.11,3.87-30.13,18.81-38.82c4.13-2.4,8.43-4.55,12.79-6.51
				c16.89-7.62,39.56-0.19,48.38,19.59c1.08,2.42,0.85,7.07,4.68,6.3c1.55-0.31,2.5-4.95,3.17-7.75c0.5-2.09,0.34-4.42,0.11-6.61
				c-1.57-15.45-6.6-29.67-15.84-42.19c-8.49-11.51-19.12-20.11-34.26-19.83c-17.46,0.31-34.18,3.26-45.26,17.51
				c-16.02,13.19-16.87,29.84-14.76,44c1.78,11.92,6.63,22.75,12.63,33.07c2.05,3.52,4.36,6.89,6.73,10.21
				c0.56,0.79,1.8,1.1,2.73,1.63C587.8,483.94,588.57,482.94,588.51,482.01z"/>
			<path d="M518.15,666.85c-12.85,12.6-31.58,12.65-43.73-0.52c-13.68-14.82-15.85-34.03-2.04-47.94
				c14.51-14.63,32.61-15.36,46.26-1.74C533.86,631.83,533.67,651.63,518.15,666.85z"/>
			<path d="M482,588.51c-2.58-0.16-5.12-0.96-7.69-1.01c-16.11-0.33-30.13,3.87-38.82,18.81c-2.4,4.13-4.55,8.43-6.52,12.79
				c-7.61,16.89-0.18,39.55,19.6,48.38c2.42,1.08,7.08,0.85,6.3,4.68c-0.31,1.54-4.95,2.5-7.75,3.17c-2.09,0.5-4.42,0.33-6.61,0.11
				c-15.45-1.57-29.68-6.6-42.19-15.84c-11.51-8.49-20.11-19.12-19.84-34.26c0.31-17.46,3.26-34.18,17.52-45.26
				c13.18-16.02,29.84-16.88,43.99-14.76c11.92,1.78,22.75,6.63,33.07,12.63c3.52,2.05,6.89,4.37,10.21,6.73
				c0.79,0.56,1.1,1.8,1.63,2.73C483.94,587.8,482.94,588.57,482,588.51z"/>
			<path d="M662.92,558.91c-4.89,1.57-9.99,3.12-14.27,5.83c-17.05,10.8-32.56,23.27-46.59,37.32
				c-14.04,14.03-26.51,29.55-37.32,46.59c-2.71,4.28-4.26,9.38-5.83,14.27c-0.97,3.01,0.81,4.56,4.07,5.1
				c9.48,1.58,18.94,3.34,28.34,5.35c3.35,0.71,5.8,0.33,8.62-4.62c4.48-5.96,10.25-13.65,16.02-21.35
				c4.51-6.01,9.44-11.56,14.69-16.76c5.2-5.24,10.75-10.18,16.76-14.69c7.69-5.77,15.38-11.54,21.35-16.02
				c4.94-2.82,5.33-5.27,4.62-8.62c-2.01-9.4-3.77-18.85-5.35-28.34C667.48,559.73,665.93,557.95,662.92,558.91z"/>
			<path d="M488.65,422.41c-17.29-4.28-34.54-8.74-51.69-13.53c-13.24-3.69-26.13-8.46-38.08-15.43c-2.23-1.3-8.92-4.37-9.29-3.86
				c-0.5,0.37,2.56,7.06,3.86,9.29c6.97,11.96,11.74,24.84,15.43,38.08c4.79,17.15,9.24,34.41,13.52,51.69
				c3.99,16.12,12.7,29.17,25.15,39.82c13.15,11.25,27.38,20.4,45.48,21.16c3.61,0.15,7.26,0.91,10.22-2.04
				c-2.69-1.75-5.29-3.69-8.11-5.23c-10.55-5.74-20.69-12.06-26.04-23.38c-8.39-17.74-12.67-36.38-11.1-56.18
				c0.14-1.72,0.6-2.76,1.41-3.4c0.64-0.81,1.68-1.27,3.4-1.41c19.8-1.57,38.44,2.71,56.18,11.1c11.32,5.35,17.64,15.49,23.38,26.04
				c1.53,2.82,3.47,5.41,5.22,8.1c2.95-2.95,2.2-6.6,2.04-10.21c-0.77-18.1-9.91-32.33-21.16-45.48
				C517.83,435.11,504.77,426.4,488.65,422.41z"/>
		</g>
	</g>
	<g>
		<g>
			<path d="M1316.33,236.31c-2.66-1.11-5.63-1.75-8.83-1.79c-10.45-0.15-21.1,12.54-20.83,24.81c0.18,8.04,5.34,14.71,12.81,17.66
				c2.69,1.07,5.67,1.66,8.84,1.65c11.78-0.04,20.45-10.44,20.33-24.4C1328.58,246.06,1323.68,239.37,1316.33,236.31z"/>
			<path d="M1237.1,432.1c-0.07-0.91-0.8-2.83-0.81-2.84c0,0-1.77,0.84-2.47,1.44c-0.83,0.71-1.6,1.61-2.07,2.59
				c-6.38,13.32-17.08,23.18-27,33.63c-7.38,7.77-15.27,15.05-22.64,22.84c-16.82,17.78-33.08,36.03-43.39,58.64
				c-5.73,12.57-9.57,25.43-9.72,39.6c-0.22,20.65,6.33,39.33,14,57.91c0.61,1.46,1.33,2.5,2.3,2.99l-0.02,0.06
				c1.06,0.39,2.34,0.16,3.85-0.47c18.56-7.7,36.4-16.29,50.85-31.04c9.91-10.13,16.29-21.93,21.13-34.87
				c8.7-23.27,10.11-47.67,10.79-72.14c0.3-10.71-0.14-21.44,0.14-32.15c0.38-14.4-0.23-28.95,4.68-42.87
				C1237.09,434.37,1237.19,433.19,1237.1,432.1z"/>
			<path d="M1307.76,480.52c-3.9-23.03-9.1-45.85-13.61-68.78c-2.71-13.82-6.28-27.6-7.49-41.57c-1.73-19.94-2.56-40.05,1.22-59.97
				c0.14-0.72-0.44-3-0.79-3.31l0,0c-0.47-0.03-2.49,1.17-2.9,1.78c-11.41,16.76-26.22,30.39-41.54,43.27
				c-10.73,9.02-23,16.24-34.69,24.1c-19.4,13.03-39.21,25.49-58.26,39.02c-18.16,12.9-35.33,27.14-50.3,43.79
				c-18.72,20.82-35.07,43.21-44.72,69.82c-4.07,11.21-6.39,22.69-6.32,34.84c0.11,18.29,0.66,36.44,6.38,53.99
				c2.06,6.32,4.18,12.72,7.21,18.6c7.82,15.17,16.27,29.99,27.59,42.96c2.66,3.04,4.53,6.76,6.84,10.12
				c0.56,0.82,1.4,1.47,2.11,2.19c0.93-1.01,2.35-1.87,2.72-3.05c4.3-14,4.18-28.13-1.79-41.42c-10.63-23.67-14.14-48.4-12.72-73.95
				c0.82-14.73,6.6-28.11,13.85-40.77c13.01-22.73,29.09-43.03,48.8-60.35c14.48-12.72,29.08-25.31,43.56-38.02
				c3.62-3.18,6.96-6.68,10.5-9.95c12.24-11.35,24.61-22.58,36.74-34.05c5.66-5.35,10.9-11.13,16.3-16.76
				c2.02-2.1,3.95-4.28,5.91-6.43c-0.13,2.91-0.31,5.82-0.37,8.73c-0.16,7.79-0.54,15.59-0.32,23.38
				c0.47,16.69,1.27,33.37,1.9,50.05c0.18,4.82,0.07,9.65,0.38,14.46c1.25,19.23,2.67,38.46,3.92,57.69
				c1.69,26.19-1.29,51.92-8.17,77.18c-3.83,14.07-9.21,27.63-19.04,38.62c-17.06,19.07-37.03,34.08-61.28,43.3
				c-13.61,5.17-23.69,15.08-30.55,28.02c-0.58,1.09-0.18,2.71-0.23,4.08c1.02-0.01,2.06,0.12,3.04-0.06
				c4.01-0.75,7.96-2.05,11.99-2.32c17.18-1.17,33.63-5.67,49.89-10.87c6.3-2.02,12.33-5.04,18.25-8.05
				c16.45-8.37,29.68-20.81,42.69-33.67c8.64-8.54,15.11-18.3,20.16-29.1c11.99-25.64,16.27-53.03,17.75-80.99
				C1313.55,524.7,1311.48,502.49,1307.76,480.52z"/>
		</g>
		<g>
			<path d="M1763.69,683.67c-1.1-2.66-2.75-5.22-4.97-7.51c-7.28-7.49-23.79-6.05-32.27,2.81c-5.56,5.81-6.62,14.17-3.43,21.55
				c1.15,2.65,2.83,5.18,5.08,7.42c8.35,8.31,21.84,7.08,31.63-2.88C1765.45,699.23,1766.73,691.03,1763.69,683.67z"/>
			<path d="M1569.22,766.09c0.6-0.69,1.43-2.56,1.44-2.58c0,0-1.85-0.66-2.76-0.73c-1.09-0.08-2.27,0.01-3.29,0.37
				c-13.93,4.91-28.47,4.31-42.88,4.68c-10.71,0.28-21.44-0.16-32.15,0.14c-24.47,0.68-48.87,2.09-72.15,10.79
				c-12.94,4.84-24.75,11.22-34.87,21.13c-14.76,14.44-23.34,32.29-31.04,50.85c-0.61,1.46-0.83,2.71-0.49,3.75l-0.06,0.02
				c0.47,1.03,1.54,1.77,3.05,2.39c18.57,7.67,37.26,14.22,57.91,14c14.17-0.15,27.03-3.99,39.6-9.72
				c22.61-10.31,40.86-26.56,58.64-43.39c7.78-7.37,15.06-15.26,22.84-22.64c10.45-9.92,20.31-20.63,33.63-27.01
				C1567.61,767.69,1568.51,766.92,1569.22,766.09z"/>
			<path d="M1584.95,850.29c13.53-19.05,25.98-38.86,39.02-58.26c7.86-11.69,15.08-23.95,24.1-34.69
				c12.88-15.32,26.51-30.13,43.27-41.54c0.6-0.41,1.81-2.44,1.78-2.9l0,0c-0.31-0.35-2.59-0.93-3.31-0.79
				c-19.92,3.78-40.03,2.95-59.97,1.22c-13.97-1.21-27.75-4.77-41.57-7.49c-22.94-4.5-45.75-9.7-68.78-13.61
				c-21.96-3.72-44.17-5.79-66.53-4.61c-27.96,1.48-55.35,5.76-80.99,17.75c-10.8,5.05-20.56,11.53-29.1,20.16
				c-12.86,13.01-25.3,26.24-33.67,42.69c-3.01,5.92-6.03,11.95-8.05,18.25c-5.2,16.26-9.7,32.71-10.87,49.89
				c-0.27,4.03-1.57,7.98-2.32,11.99c-0.18,0.98-0.05,2.02-0.06,3.04c1.37-0.05,2.98,0.35,4.08-0.23
				c12.94-6.86,22.85-16.94,28.02-30.55c9.22-24.25,24.23-44.23,43.3-61.28c10.99-9.83,24.55-15.21,38.62-19.04
				c25.27-6.87,51-9.85,77.19-8.17c19.23,1.24,38.46,2.67,57.69,3.92c4.81,0.31,9.64,0.2,14.46,0.38
				c16.68,0.63,33.36,1.43,50.05,1.9c7.78,0.22,15.58-0.16,23.38-0.32c2.91-0.06,5.82-0.24,8.73-0.37
				c-2.15,1.96-4.33,3.89-6.43,5.91c-5.62,5.4-11.4,10.65-16.76,16.3c-11.47,12.13-22.7,24.49-34.05,36.74
				c-3.28,3.53-6.77,6.88-9.96,10.49c-12.72,14.48-25.3,29.08-38.02,43.56c-17.32,19.71-37.62,35.8-60.35,48.8
				c-12.66,7.24-26.05,13.03-40.77,13.85c-25.55,1.42-50.29-2.09-73.95-12.72c-13.28-5.97-27.42-6.09-41.42-1.79
				c-1.18,0.36-2.04,1.79-3.05,2.72c0.73,0.71,1.37,1.55,2.19,2.11c3.36,2.3,7.08,4.18,10.12,6.84
				c12.98,11.33,27.79,19.78,42.96,27.59c5.88,3.03,12.28,5.16,18.6,7.21c17.55,5.71,35.7,6.27,53.99,6.38
				c12.14,0.07,23.62-2.26,34.83-6.32c26.61-9.65,49-26,69.83-44.72C1557.8,885.63,1572.04,868.45,1584.95,850.29z"/>
		</g>
		<g>
			<path d="M1763.69,1316.33c1.11-2.66,1.75-5.63,1.79-8.83c0.15-10.45-12.54-21.1-24.81-20.83c-8.04,0.18-14.71,5.34-17.66,12.81
				c-1.07,2.69-1.66,5.67-1.65,8.84c0.04,11.78,10.44,20.45,24.4,20.33C1753.93,1328.58,1760.63,1323.69,1763.69,1316.33z"/>
			<path d="M1567.9,1237.1c0.91-0.07,2.83-0.8,2.84-0.81c0,0-0.84-1.77-1.44-2.47c-0.71-0.83-1.61-1.6-2.59-2.07
				c-13.32-6.38-23.18-17.08-33.63-27.01c-7.77-7.38-15.05-15.27-22.83-22.63c-17.78-16.82-36.04-33.08-58.64-43.39
				c-12.57-5.73-25.43-9.57-39.6-9.72c-20.65-0.22-39.33,6.32-57.91,14c-1.46,0.61-2.5,1.33-2.99,2.3l-0.06-0.02
				c-0.39,1.06-0.16,2.34,0.47,3.85c7.71,18.56,16.29,36.4,31.05,50.85c10.13,9.91,21.93,16.29,34.87,21.13
				c23.27,8.7,47.67,10.11,72.15,10.79c10.71,0.29,21.44-0.14,32.15,0.14c14.4,0.38,28.95-0.22,42.87,4.68
				C1565.63,1237.09,1566.81,1237.19,1567.9,1237.1z"/>
			<path d="M1519.47,1307.76c23.04-3.9,45.85-9.1,68.78-13.6c13.82-2.71,27.6-6.28,41.57-7.49c19.94-1.73,40.05-2.56,59.97,1.22
				c0.72,0.14,3-0.44,3.31-0.79v0c0.03-0.47-1.18-2.49-1.78-2.9c-16.76-11.41-30.39-26.22-43.27-41.54
				c-9.02-10.74-16.24-23-24.1-34.69c-13.04-19.4-25.49-39.21-39.02-58.26c-12.9-18.16-27.14-35.33-43.79-50.3
				c-20.82-18.72-43.21-35.07-69.82-44.72c-11.21-4.07-22.69-6.39-34.83-6.32c-18.3,0.1-36.44,0.66-53.99,6.38
				c-6.32,2.06-12.72,4.18-18.59,7.21c-15.17,7.82-29.99,16.27-42.96,27.59c-3.04,2.65-6.76,4.53-10.12,6.84
				c-0.83,0.57-1.46,1.4-2.19,2.11c1.01,0.93,1.86,2.36,3.05,2.72c14,4.3,28.13,4.18,41.42-1.79c23.67-10.63,48.4-14.14,73.95-12.72
				c14.73,0.82,28.12,6.6,40.77,13.85c22.73,13.01,43.03,29.09,60.35,48.8c12.72,14.48,25.31,29.08,38.02,43.56
				c3.18,3.62,6.68,6.96,9.95,10.5c11.35,12.24,22.58,24.61,34.05,36.74c5.35,5.66,11.13,10.9,16.75,16.3
				c2.1,2.02,4.28,3.94,6.44,5.91c-2.91-0.13-5.82-0.31-8.73-0.37c-7.79-0.16-15.59-0.54-23.38-0.32
				c-16.69,0.47-33.37,1.27-50.05,1.9c-4.82,0.18-9.65,0.07-14.46,0.38c-19.23,1.25-38.46,2.67-57.69,3.92
				c-26.18,1.69-51.92-1.29-77.18-8.17c-14.07-3.83-27.63-9.21-38.62-19.04c-19.07-17.06-34.08-37.03-43.3-61.29
				c-5.17-13.61-15.09-23.69-28.02-30.55c-1.09-0.58-2.71-0.18-4.08-0.24c0.01,1.02-0.13,2.06,0.06,3.04
				c0.75,4,2.05,7.96,2.32,11.99c1.17,17.19,5.67,33.64,10.87,49.89c2.02,6.3,5.04,12.33,8.05,18.25
				c8.37,16.45,20.81,29.68,33.67,42.69c8.54,8.64,18.3,15.11,29.1,20.16c25.64,12,53.03,16.27,81,17.75
				C1475.3,1313.55,1497.51,1311.48,1519.47,1307.76z"/>
		</g>
		<g>
			<path d="M1316.33,1763.69c2.67-1.1,5.22-2.75,7.51-4.98c7.49-7.28,6.05-23.79-2.81-32.27c-5.81-5.56-14.17-6.62-21.55-3.43
				c-2.65,1.15-5.18,2.83-7.42,5.08c-8.31,8.36-7.08,21.84,2.88,31.63C1300.77,1765.45,1308.96,1766.73,1316.33,1763.69z"/>
			<path d="M1233.91,1569.22c0.69,0.6,2.56,1.43,2.58,1.44c0,0,0.66-1.85,0.73-2.76c0.08-1.09-0.01-2.27-0.37-3.3
				c-4.91-13.93-4.31-28.47-4.68-42.87c-0.28-10.71,0.16-21.44-0.14-32.15c-0.68-24.47-2.09-48.87-10.79-72.15
				c-4.84-12.94-11.22-24.75-21.13-34.87c-14.44-14.76-32.28-23.34-50.84-31.04c-1.46-0.61-2.71-0.83-3.75-0.49l-0.02-0.06
				c-1.02,0.47-1.77,1.54-2.39,3.05c-7.67,18.57-14.22,37.26-14,57.91c0.15,14.17,3.99,27.03,9.72,39.6
				c10.31,22.61,26.56,40.86,43.38,58.64c7.37,7.78,15.26,15.06,22.64,22.84c9.92,10.45,20.63,20.31,27,33.63
				C1232.31,1567.61,1233.08,1568.51,1233.91,1569.22z"/>
			<path d="M1149.7,1584.95c19.05,13.53,38.86,25.98,58.26,39.02c11.69,7.85,23.96,15.08,34.69,24.09
				c15.32,12.88,30.13,26.52,41.54,43.27c0.41,0.61,2.43,1.81,2.9,1.78l0,0c0.35-0.31,0.93-2.59,0.79-3.31
				c-3.78-19.92-2.95-40.03-1.22-59.97c1.21-13.97,4.77-27.74,7.49-41.57c4.5-22.94,9.7-45.75,13.6-68.78
				c3.72-21.96,5.79-44.17,4.61-66.53c-1.48-27.96-5.76-55.35-17.75-81c-5.06-10.8-11.53-20.56-20.16-29.1
				c-13.01-12.86-26.23-25.3-42.69-33.67c-5.92-3.01-11.95-6.03-18.25-8.05c-16.26-5.21-32.71-9.7-49.89-10.87
				c-4.03-0.27-7.98-1.57-11.99-2.32c-0.99-0.18-2.03-0.05-3.04-0.06c0.05,1.37-0.35,2.98,0.23,4.08
				c6.86,12.94,16.94,22.85,30.55,28.02c24.25,9.22,44.23,24.23,61.29,43.29c9.83,11,15.21,24.55,19.04,38.62
				c6.87,25.27,9.86,51,8.17,77.19c-1.24,19.23-2.67,38.46-3.92,57.69c-0.31,4.81-0.2,9.64-0.38,14.46
				c-0.63,16.68-1.43,33.36-1.9,50.05c-0.22,7.78,0.16,15.58,0.32,23.37c0.06,2.91,0.24,5.82,0.37,8.73
				c-1.97-2.15-3.89-4.33-5.91-6.43c-5.4-5.62-10.64-11.41-16.3-16.76c-12.13-11.47-24.49-22.7-36.74-34.05
				c-3.53-3.28-6.88-6.77-10.49-9.96c-14.48-12.71-29.08-25.3-43.56-38.02c-19.71-17.32-35.8-37.62-48.8-60.35
				c-7.25-12.66-13.03-26.05-13.85-40.78c-1.42-25.55,2.09-50.28,12.72-73.95c5.97-13.28,6.09-27.42,1.79-41.42
				c-0.36-1.18-1.79-2.04-2.72-3.05c-0.71,0.73-1.54,1.37-2.11,2.19c-2.3,3.36-4.18,7.08-6.84,10.12
				c-11.33,12.98-19.78,27.79-27.59,42.96c-3.03,5.88-5.16,12.28-7.21,18.6c-5.71,17.55-6.27,35.7-6.38,53.99
				c-0.07,12.15,2.25,23.62,6.32,34.84c9.65,26.62,26,49.01,44.72,69.83C1114.37,1557.8,1131.55,1572.05,1149.7,1584.95z"/>
		</g>
		<g>
			<path d="M683.67,1763.69c2.66,1.11,5.63,1.75,8.83,1.79c10.45,0.15,21.1-12.54,20.83-24.81c-0.18-8.04-5.34-14.71-12.81-17.66
				c-2.69-1.07-5.67-1.66-8.83-1.65c-11.78,0.03-20.45,10.44-20.33,24.4C671.42,1753.93,676.31,1760.63,683.67,1763.69z"/>
			<path d="M762.9,1567.9c0.07,0.91,0.8,2.82,0.81,2.84c0,0,1.77-0.84,2.47-1.44c0.83-0.71,1.6-1.61,2.07-2.59
				c6.38-13.32,17.08-23.18,27-33.63c7.38-7.77,15.27-15.05,22.64-22.84c16.82-17.78,33.08-36.04,43.39-58.64
				c5.73-12.57,9.57-25.43,9.72-39.6c0.23-20.65-6.32-39.33-14-57.9c-0.61-1.46-1.33-2.5-2.3-3l0.02-0.06
				c-1.06-0.39-2.34-0.16-3.85,0.46c-18.56,7.71-36.4,16.29-50.85,31.04c-9.91,10.13-16.29,21.93-21.13,34.88
				c-8.7,23.27-10.11,47.67-10.79,72.14c-0.29,10.71,0.14,21.44-0.14,32.15c-0.38,14.4,0.22,28.95-4.69,42.88
				C762.91,1565.62,762.81,1566.81,762.9,1567.9z"/>
			<path d="M692.24,1519.47c3.9,23.04,9.1,45.85,13.6,68.78c2.72,13.82,6.28,27.6,7.49,41.57c1.73,19.94,2.56,40.05-1.22,59.97
				c-0.14,0.72,0.44,3,0.79,3.31l0,0c0.47,0.03,2.49-1.18,2.9-1.78c11.41-16.76,26.22-30.39,41.54-43.27
				c10.74-9.02,22.99-16.24,34.69-24.1c19.4-13.04,39.21-25.49,58.26-39.02c18.16-12.9,35.33-27.14,50.3-43.78
				c18.72-20.82,35.07-43.21,44.72-69.82c4.06-11.22,6.39-22.69,6.32-34.83c-0.1-18.3-0.66-36.44-6.38-53.99
				c-2.06-6.32-4.18-12.72-7.22-18.59c-7.81-15.18-16.27-29.99-27.59-42.97c-2.65-3.04-4.53-6.75-6.84-10.12
				c-0.57-0.83-1.4-1.46-2.11-2.19c-0.93,1.01-2.36,1.86-2.72,3.05c-4.3,14-4.18,28.14,1.79,41.42
				c10.63,23.66,14.14,48.4,12.72,73.95c-0.82,14.73-6.6,28.12-13.85,40.78c-13.01,22.73-29.09,43.03-48.8,60.35
				c-14.48,12.72-29.08,25.31-43.56,38.02c-3.62,3.18-6.96,6.68-10.5,9.96c-12.24,11.35-24.6,22.58-36.74,34.05
				c-5.66,5.35-10.9,11.13-16.3,16.75c-2.02,2.1-3.94,4.28-5.91,6.43c0.13-2.91,0.31-5.82,0.37-8.73
				c0.16-7.79,0.54-15.59,0.32-23.37c-0.47-16.69-1.27-33.37-1.9-50.05c-0.18-4.82-0.07-9.65-0.38-14.46
				c-1.25-19.23-2.68-38.46-3.92-57.69c-1.69-26.19,1.29-51.92,8.16-77.18c3.83-14.07,9.21-27.63,19.04-38.63
				c17.06-19.07,37.03-34.08,61.29-43.29c13.61-5.17,23.69-15.08,30.55-28.02c0.58-1.09,0.18-2.71,0.24-4.08
				c-1.02,0.01-2.06-0.12-3.04,0.06c-4,0.75-7.96,2.05-11.99,2.32c-17.19,1.17-33.64,5.67-49.89,10.87
				c-6.3,2.01-12.33,5.03-18.25,8.05c-16.45,8.37-29.68,20.81-42.69,33.67c-8.64,8.54-15.11,18.3-20.16,29.1
				c-12,25.65-16.27,53.04-17.75,81C686.45,1475.3,688.52,1497.52,692.24,1519.47z"/>
		</g>
		<g>
			<path d="M236.31,1316.33c1.1,2.67,2.75,5.22,4.98,7.51c7.28,7.5,23.78,6.06,32.27-2.81c5.56-5.81,6.62-14.17,3.43-21.55
				c-1.15-2.65-2.83-5.19-5.08-7.42c-8.36-8.31-21.84-7.08-31.63,2.88C234.55,1300.77,233.27,1308.96,236.31,1316.33z"/>
			<path d="M430.78,1233.91c-0.6,0.69-1.43,2.56-1.44,2.58c0,0,1.85,0.66,2.76,0.73c1.09,0.08,2.27-0.01,3.3-0.37
				c13.93-4.91,28.47-4.31,42.87-4.68c10.71-0.28,21.44,0.15,32.15-0.14c24.47-0.68,48.87-2.09,72.15-10.79
				c12.94-4.84,24.75-11.22,34.87-21.13c14.76-14.44,23.34-32.28,31.04-50.84c0.61-1.46,0.83-2.71,0.49-3.75l0.06-0.02
				c-0.47-1.02-1.54-1.77-3.05-2.4c-18.57-7.67-37.26-14.22-57.91-14c-14.17,0.16-27.03,3.99-39.6,9.72
				c-22.61,10.31-40.86,26.56-58.64,43.38c-7.78,7.37-15.06,15.26-22.83,22.64c-10.45,9.92-20.31,20.63-33.63,27.01
				C432.39,1232.31,431.49,1233.08,430.78,1233.91z"/>
			<path d="M415.05,1149.7c-13.53,19.05-25.98,38.86-39.02,58.25c-7.85,11.7-15.08,23.96-24.1,34.69
				c-12.88,15.32-26.51,30.13-43.27,41.54c-0.61,0.41-1.81,2.43-1.78,2.9l0,0c0.31,0.35,2.59,0.93,3.31,0.79
				c19.92-3.78,40.03-2.95,59.97-1.22c13.97,1.22,27.74,4.78,41.57,7.49c22.94,4.5,45.75,9.7,68.78,13.6
				c21.96,3.72,44.17,5.79,66.53,4.61c27.96-1.48,55.35-5.76,80.99-17.75c10.81-5.06,20.56-11.53,29.1-20.17
				c12.86-13.01,25.3-26.23,33.67-42.69c3.01-5.92,6.03-11.95,8.05-18.25c5.21-16.26,9.71-32.71,10.87-49.89
				c0.27-4.03,1.57-7.98,2.32-11.99c0.18-0.99,0.05-2.03,0.06-3.04c-1.37,0.05-2.98-0.35-4.07,0.23
				c-12.94,6.86-22.85,16.94-28.02,30.55c-9.22,24.25-24.23,44.23-43.29,61.28c-11,9.83-24.55,15.21-38.62,19.04
				c-25.27,6.87-51,9.86-77.19,8.17c-19.23-1.24-38.46-2.67-57.69-3.92c-4.81-0.31-9.64-0.2-14.46-0.38
				c-16.68-0.63-33.36-1.43-50.05-1.9c-7.78-0.22-15.58,0.16-23.37,0.32c-2.91,0.06-5.82,0.24-8.73,0.37
				c2.15-1.97,4.33-3.89,6.43-5.91c5.62-5.4,11.41-10.64,16.76-16.3c11.47-12.13,22.7-24.49,34.05-36.74
				c3.28-3.54,6.77-6.88,9.96-10.5c12.71-14.48,25.3-29.08,38.02-43.56c17.32-19.71,37.62-35.8,60.35-48.81
				c12.66-7.24,26.05-13.03,40.78-13.85c25.55-1.42,50.28,2.09,73.95,12.72c13.28,5.97,27.42,6.09,41.42,1.79
				c1.18-0.36,2.04-1.79,3.05-2.72c-0.73-0.71-1.37-1.54-2.19-2.11c-3.36-2.3-7.08-4.18-10.12-6.84
				c-12.98-11.33-27.79-19.78-42.96-27.59c-5.88-3.03-12.28-5.16-18.59-7.21c-17.55-5.72-35.7-6.27-53.99-6.38
				c-12.15-0.07-23.62,2.26-34.84,6.32c-26.62,9.65-49.01,26-69.83,44.72C442.19,1114.37,427.95,1131.55,415.05,1149.7z"/>
		</g>
		<g>
			<path d="M236.31,683.67c-1.11,2.66-1.75,5.63-1.79,8.83c-0.15,10.45,12.54,21.1,24.81,20.83c8.04-0.18,14.7-5.34,17.66-12.81
				c1.07-2.69,1.66-5.67,1.65-8.84c-0.03-11.79-10.44-20.45-24.4-20.33C246.06,671.42,239.37,676.31,236.31,683.67z"/>
			<path d="M432.1,762.9c-0.91,0.07-2.83,0.8-2.84,0.81c0,0,0.84,1.77,1.44,2.47c0.71,0.83,1.61,1.6,2.59,2.07
				c13.32,6.38,23.18,17.08,33.63,27c7.77,7.38,15.05,15.27,22.84,22.64c17.78,16.82,36.04,33.08,58.64,43.39
				c12.57,5.73,25.43,9.57,39.6,9.72c20.65,0.23,39.33-6.32,57.9-14c1.46-0.61,2.5-1.33,3-2.3l0.06,0.02
				c0.39-1.06,0.16-2.34-0.46-3.85c-7.71-18.56-16.29-36.4-31.05-50.85c-10.13-9.91-21.93-16.29-34.88-21.13
				c-23.27-8.7-47.67-10.11-72.14-10.79c-10.71-0.29-21.44,0.14-32.15-0.14c-14.4-0.38-28.95,0.22-42.88-4.68
				C434.37,762.91,433.19,762.81,432.1,762.9z"/>
			<path d="M480.52,692.24c-23.04,3.9-45.85,9.1-68.78,13.6c-13.82,2.72-27.6,6.28-41.57,7.49c-19.94,1.73-40.05,2.56-59.97-1.22
				c-0.72-0.14-3,0.44-3.31,0.79l0,0c-0.03,0.47,1.18,2.49,1.78,2.9c16.75,11.41,30.39,26.22,43.27,41.54
				c9.02,10.74,16.24,23,24.1,34.69c13.03,19.4,25.49,39.21,39.02,58.26c12.9,18.16,27.14,35.33,43.78,50.3
				c20.82,18.72,43.21,35.07,69.82,44.72c11.22,4.07,22.69,6.39,34.84,6.32c18.29-0.1,36.44-0.66,53.99-6.38
				c6.32-2.06,12.72-4.18,18.59-7.21c15.18-7.81,29.99-16.27,42.97-27.59c3.04-2.65,6.75-4.53,10.12-6.84
				c0.83-0.57,1.46-1.4,2.19-2.11c-1.01-0.93-1.86-2.36-3.05-2.72c-14-4.3-28.14-4.18-41.42,1.79
				c-23.66,10.63-48.4,14.14-73.95,12.72c-14.73-0.82-28.12-6.6-40.78-13.85c-22.73-13.01-43.03-29.09-60.35-48.8
				c-12.72-14.48-25.31-29.08-38.02-43.56c-3.18-3.62-6.68-6.96-9.95-10.5c-11.35-12.24-22.58-24.6-34.05-36.74
				c-5.35-5.66-11.13-10.9-16.75-16.3c-2.1-2.02-4.28-3.94-6.43-5.91c2.91,0.13,5.82,0.31,8.73,0.37
				c7.79,0.16,15.59,0.54,23.37,0.32c16.69-0.47,33.37-1.27,50.05-1.9c4.82-0.18,9.65-0.07,14.46-0.38
				c19.23-1.25,38.46-2.67,57.69-3.91c26.19-1.69,51.92,1.29,77.19,8.16c14.07,3.83,27.63,9.21,38.63,19.04
				c19.07,17.06,34.08,37.03,43.3,61.29c5.17,13.61,15.08,23.69,28.02,30.55c1.09,0.58,2.71,0.18,4.08,0.24
				c-0.01-1.02,0.12-2.06-0.06-3.04c-0.75-4-2.05-7.96-2.32-11.99c-1.17-17.18-5.66-33.64-10.87-49.89
				c-2.01-6.3-5.03-12.33-8.05-18.25c-8.37-16.45-20.81-29.68-33.67-42.69c-8.54-8.64-18.3-15.11-29.1-20.16
				c-25.64-12-53.04-16.27-81-17.75C524.7,686.45,502.48,688.52,480.52,692.24z"/>
		</g>
		<g>
			<path d="M683.67,236.31c-2.66,1.1-5.22,2.75-7.51,4.98c-7.5,7.28-6.06,23.79,2.81,32.27c5.81,5.56,14.17,6.62,21.55,3.43
				c2.65-1.15,5.19-2.83,7.42-5.08c8.31-8.36,7.08-21.84-2.88-31.63C699.23,234.55,691.03,233.27,683.67,236.31z"/>
			<path d="M766.09,430.78c-0.69-0.6-2.56-1.43-2.58-1.44c0,0-0.66,1.85-0.73,2.76c-0.08,1.09,0.01,2.27,0.37,3.3
				c4.91,13.93,4.31,28.47,4.68,42.87c0.28,10.71-0.15,21.44,0.14,32.15c0.68,24.47,2.09,48.87,10.79,72.14
				c4.84,12.94,11.22,24.75,21.13,34.87c14.44,14.76,32.28,23.34,50.84,31.04c1.46,0.61,2.71,0.83,3.75,0.49l0.02,0.06
				c1.03-0.47,1.77-1.54,2.4-3.05c7.67-18.57,14.22-37.26,14-57.91c-0.16-14.17-3.99-27.02-9.72-39.6
				c-10.31-22.61-26.56-40.86-43.38-58.64c-7.37-7.78-15.26-15.06-22.64-22.84c-9.92-10.45-20.63-20.31-27.01-33.63
				C767.69,432.39,766.92,431.49,766.09,430.78z"/>
			<path d="M850.29,415.05c-19.05-13.53-38.86-25.98-58.25-39.02c-11.7-7.85-23.96-15.08-34.69-24.1
				c-15.32-12.87-30.13-26.51-41.54-43.27c-0.41-0.6-2.43-1.81-2.9-1.78l0,0c-0.35,0.31-0.93,2.59-0.79,3.31
				c3.78,19.91,2.95,40.03,1.22,59.97c-1.22,13.97-4.78,27.74-7.49,41.57c-4.5,22.93-9.7,45.75-13.6,68.78
				c-3.72,21.96-5.79,44.17-4.61,66.53c1.48,27.96,5.76,55.35,17.75,80.99c5.06,10.81,11.53,20.56,20.17,29.1
				c13.01,12.86,26.23,25.3,42.69,33.67c5.92,3.01,11.95,6.04,18.25,8.05c16.26,5.2,32.71,9.71,49.89,10.87
				c4.03,0.27,7.98,1.57,11.99,2.32c0.99,0.19,2.03,0.05,3.04,0.06c-0.06-1.37,0.35-2.98-0.23-4.07
				c-6.86-12.94-16.94-22.85-30.55-28.02c-24.25-9.21-44.23-24.23-61.28-43.29c-9.84-11-15.21-24.55-19.04-38.63
				c-6.87-25.27-9.85-51-8.17-77.19c1.24-19.23,2.67-38.46,3.92-57.69c0.31-4.81,0.2-9.65,0.38-14.46
				c0.63-16.68,1.43-33.36,1.9-50.05c0.22-7.78-0.16-15.58-0.32-23.38c-0.06-2.91-0.24-5.82-0.37-8.73
				c1.97,2.15,3.89,4.33,5.91,6.43c5.4,5.62,10.65,11.41,16.3,16.75c12.13,11.47,24.49,22.7,36.74,34.05
				c3.54,3.28,6.88,6.77,10.5,9.96c14.48,12.71,29.08,25.3,43.56,38.02c19.71,17.32,35.8,37.62,48.81,60.35
				c7.24,12.66,13.03,26.05,13.85,40.78c1.42,25.55-2.09,50.28-12.72,73.95c-5.97,13.28-6.09,27.42-1.79,41.42
				c0.36,1.18,1.79,2.04,2.72,3.05c0.71-0.73,1.54-1.37,2.11-2.19c2.3-3.36,4.18-7.08,6.84-10.12
				c11.33-12.98,19.78-27.79,27.59-42.96c3.03-5.88,5.16-12.28,7.21-18.6c5.72-17.55,6.27-35.7,6.38-53.99
				c0.07-12.15-2.26-23.62-6.32-34.84c-9.65-26.62-26-49.01-44.72-69.83C885.63,442.2,868.45,427.95,850.29,415.05z"/>
		</g>
	</g>
	<g>
		<path d="M889.63,705.97c-3.77-0.14-7.38,0.61-10.58,2.01c-7.49,3.27-12.8,10.16-12.84,18.06c-0.06,12.09,8.39,22.22,18.68,22.4
			c3.54,0.06,6.96-0.71,10.06-2.08c7.7-3.44,13.31-10.7,13.26-18.64C908.12,716.92,899.07,706.32,889.63,705.97z"/>
		<path d="M1129.87,714.04c-2.57-2.76-5.65-4.78-8.9-6.06c-7.61-2.98-16.23-1.86-21.85,3.7c-8.59,8.51-9.78,21.65-2.63,29.04
			c2.46,2.54,5.42,4.43,8.58,5.64c7.88,3.02,16.98,1.84,22.56-3.81C1135.2,734.87,1136.29,720.97,1129.87,714.04z"/>
		<path d="M1294.03,889.63c0.14-3.77-0.61-7.38-2.01-10.58c-3.27-7.49-10.16-12.8-18.06-12.84c-12.09-0.06-22.22,8.39-22.4,18.68
			c-0.06,3.54,0.7,6.96,2.08,10.06c3.44,7.7,10.71,13.31,18.64,13.26C1283.08,908.12,1293.68,899.07,1294.03,889.63z"/>
		<path d="M1285.96,1129.87c2.76-2.57,4.79-5.65,6.06-8.9c2.98-7.61,1.86-16.23-3.7-21.85c-8.5-8.59-21.65-9.78-29.04-2.63
			c-2.54,2.46-4.43,5.42-5.64,8.58c-3.02,7.88-1.84,16.98,3.81,22.56C1265.14,1135.2,1279.03,1136.29,1285.96,1129.87z"/>
		<path d="M1110.38,1294.03c3.77,0.14,7.37-0.61,10.58-2.01c7.49-3.27,12.79-10.16,12.83-18.07c0.06-12.09-8.39-22.22-18.68-22.39
			c-3.54-0.06-6.97,0.7-10.06,2.08c-7.7,3.44-13.31,10.71-13.26,18.64C1091.88,1283.08,1100.93,1293.68,1110.38,1294.03z"/>
		<path d="M870.14,1285.96c2.57,2.76,5.65,4.78,8.91,6.06c7.61,2.98,16.23,1.86,21.85-3.7c8.59-8.5,9.78-21.65,2.63-29.04
			c-2.46-2.54-5.42-4.43-8.58-5.64c-7.88-3.02-16.98-1.84-22.56,3.81C864.8,1265.14,863.71,1279.04,870.14,1285.96z"/>
		<path d="M705.97,1110.38c-0.14,3.77,0.61,7.38,2.01,10.59c3.27,7.49,10.16,12.79,18.07,12.83c12.09,0.06,22.22-8.39,22.4-18.67
			c0.06-3.54-0.7-6.97-2.09-10.06c-3.44-7.7-10.7-13.31-18.64-13.26C716.92,1091.88,706.32,1100.93,705.97,1110.38z"/>
		<path d="M714.04,870.14c-2.76,2.57-4.78,5.65-6.06,8.91c-2.98,7.61-1.86,16.23,3.7,21.85c8.5,8.59,21.65,9.78,29.04,2.63
			c2.54-2.46,4.43-5.43,5.64-8.59c3.02-7.88,1.84-16.98-3.81-22.56C734.87,864.8,720.97,863.71,714.04,870.14z"/>
	</g>
	<g>
		<g>
			<path d="M1080.29,748.7c-0.6-10.52-5.59-19.03-15.02-23.08c-13.08-5.62-26.66-6.51-39.29,2.28c-9.66,6.72-16.91,15.5-22.45,25.82
				c-0.86,1.61-2.27,2.92-3.53,4.31c-1.26-1.39-2.67-2.7-3.53-4.31c-5.54-10.32-12.78-19.1-22.45-25.82
				c-12.64-8.79-26.21-7.9-39.29-2.28c-9.42,4.05-14.42,12.57-15.02,23.08c-0.25,4.37,1.25,5.54,5.12,3.87
				c19.32-8.38,34.02-0.73,45.51,12.57c10.6,12.27,15.83,26.65,18.01,42.43c1.67,12.13,3.58,24.23,5.28,36.36
				c0.57,4.03,0.92,8.09,1.21,12.15c1,14.07,1.85,28.15,2.94,42.22c0.26,3.3,1.17,6.55,1.88,9.8c0.06,0.26,0.19,0.49,0.35,0.73
				c0.16-0.23,0.3-0.47,0.35-0.73c0.71-3.25,1.63-6.5,1.88-9.8c1.09-14.06,1.94-28.15,2.94-42.22c0.29-4.06,0.64-8.12,1.21-12.15
				c1.7-12.13,3.6-24.23,5.28-36.36c2.18-15.79,7.41-30.16,18.01-42.43c11.48-13.29,26.19-20.95,45.51-12.57
				C1079.04,754.24,1080.54,753.07,1080.29,748.7z"/>
			<path d="M1020.69,647.34c-2.95-22.48-11.35-43.8-18.27-65.37c-0.4-1.24-1.57-2.23-2.42-3.32c-0.86,1.09-2.03,2.08-2.42,3.32
				c-6.92,21.57-15.32,42.89-18.27,65.37c-2.61,19.88-2.73,40.19,7.1,58.85c3.63,6.89,7.7,13.56,11.79,20.2
				c0.51,0.82,1.14,1.31,1.8,1.39c0.66-0.08,1.3-0.56,1.8-1.39c4.09-6.64,8.16-13.31,11.79-20.2
				C1023.42,687.53,1023.3,667.22,1020.69,647.34z"/>
		</g>
		<g>
			<path d="M1234.47,879.08c7.01-7.86,9.5-17.41,5.7-26.94c-5.27-13.23-14.24-23.45-29.4-26.17c-11.58-2.08-22.91-1-34.13,2.39
				c-1.75,0.53-3.67,0.46-5.54,0.55c0.09-1.87,0.02-3.8,0.55-5.54c3.39-11.21,4.47-22.54,2.39-34.13
				c-2.72-15.15-12.95-24.12-26.18-29.4c-9.53-3.8-19.08-1.31-26.94,5.7c-3.27,2.92-3.03,4.8,0.88,6.35
				c19.59,7.73,24.58,23.54,23.29,41.06c-1.18,16.17-7.65,30.04-17.27,42.74c-7.4,9.76-14.61,19.66-21.98,29.44
				c-2.45,3.25-5.07,6.37-7.74,9.45c-9.24,10.66-18.6,21.22-27.77,31.93c-2.15,2.51-3.8,5.46-5.6,8.26
				c-0.14,0.22-0.21,0.48-0.27,0.76c0.28-0.05,0.54-0.13,0.76-0.27c2.8-1.79,5.75-3.44,8.26-5.6c10.71-9.18,21.27-18.53,31.93-27.77
				c3.07-2.67,6.2-5.29,9.44-7.74c9.78-7.37,19.68-14.58,29.44-21.98c12.7-9.62,26.57-16.09,42.74-17.27
				c17.52-1.28,33.33,3.71,41.06,23.29C1229.66,882.11,1231.55,882.35,1234.47,879.08z"/>
			<path d="M1264,765.27c13.81-17.98,22.95-39,33.3-59.14c0.6-1.16,0.47-2.68,0.63-4.06c-1.38,0.17-2.9,0.04-4.06,0.63
				c-20.14,10.36-41.16,19.49-59.14,33.3c-15.9,12.21-30.35,26.49-36.59,46.64c-2.31,7.44-4.15,15.04-5.95,22.62
				c-0.22,0.94-0.12,1.73,0.3,2.26c0.53,0.41,1.31,0.52,2.26,0.29c7.58-1.8,15.18-3.64,22.62-5.95
				C1237.51,795.61,1251.79,781.16,1264,765.27z"/>
		</g>
		<g>
			<path d="M1251.3,1080.29c10.51-0.6,19.03-5.59,23.08-15.02c5.62-13.08,6.51-26.66-2.28-39.29c-6.72-9.66-15.5-16.91-25.82-22.45
				c-1.61-0.86-2.92-2.27-4.31-3.53c1.39-1.26,2.7-2.67,4.31-3.53c10.32-5.53,19.1-12.78,25.82-22.44
				c8.79-12.64,7.9-26.21,2.28-39.3c-4.05-9.42-12.57-14.41-23.08-15.02c-4.37-0.25-5.54,1.25-3.87,5.12
				c8.38,19.32,0.73,34.02-12.56,45.51c-12.27,10.6-26.65,15.83-42.43,18.01c-12.13,1.67-24.23,3.58-36.36,5.28
				c-4.03,0.56-8.09,0.92-12.15,1.21c-14.07,1-28.15,1.85-42.22,2.94c-3.3,0.26-6.55,1.17-9.8,1.89c-0.26,0.06-0.49,0.19-0.73,0.35
				c0.23,0.16,0.47,0.3,0.73,0.35c3.25,0.71,6.5,1.63,9.8,1.89c14.06,1.09,28.15,1.94,42.22,2.94c4.06,0.29,8.12,0.64,12.15,1.21
				c12.13,1.7,24.23,3.6,36.36,5.28c15.79,2.18,30.16,7.41,42.43,18.01c13.29,11.48,20.95,26.19,12.56,45.51
				C1245.76,1079.04,1246.92,1080.54,1251.3,1080.29z"/>
			<path d="M1352.66,1020.7c22.48-2.95,43.8-11.35,65.37-18.27c1.24-0.4,2.23-1.57,3.32-2.42c-1.09-0.85-2.08-2.03-3.32-2.42
				c-21.57-6.92-42.89-15.32-65.37-18.27c-19.88-2.61-40.19-2.73-58.85,7.1c-6.89,3.63-13.57,7.7-20.2,11.79
				c-0.83,0.51-1.31,1.14-1.39,1.81c0.08,0.67,0.56,1.3,1.39,1.81c6.64,4.09,13.31,8.16,20.2,11.79
				C1312.47,1023.42,1332.78,1023.3,1352.66,1020.7z"/>
		</g>
		<g>
			<path d="M1120.92,1234.47c7.86,7.01,17.41,9.5,26.94,5.7c13.23-5.27,23.46-14.24,26.17-29.4c2.08-11.58,1-22.91-2.38-34.13
				c-0.53-1.75-0.46-3.67-0.55-5.54c1.88,0.09,3.8,0.02,5.54,0.55c11.21,3.39,22.54,4.47,34.12,2.39
				c15.15-2.72,24.12-12.95,29.4-26.18c3.8-9.53,1.31-19.08-5.7-26.94c-2.92-3.27-4.8-3.03-6.35,0.88
				c-7.74,19.59-23.54,24.58-41.06,23.29c-16.17-1.18-30.04-7.65-42.74-17.27c-9.76-7.39-19.66-14.61-29.44-21.98
				c-3.25-2.45-6.37-5.07-9.45-7.74c-10.66-9.24-21.22-18.6-31.93-27.77c-2.51-2.15-5.46-3.8-8.26-5.6
				c-0.22-0.14-0.49-0.21-0.76-0.27c0.05,0.28,0.12,0.54,0.27,0.76c1.79,2.8,3.44,5.75,5.59,8.26
				c9.18,10.71,18.53,21.27,27.77,31.93c2.67,3.07,5.29,6.19,7.74,9.44c7.37,9.78,14.58,19.68,21.98,29.44
				c9.62,12.7,16.09,26.56,17.27,42.74c1.28,17.52-3.71,33.33-23.29,41.06C1117.89,1229.66,1117.65,1231.55,1120.92,1234.47z"/>
			<path d="M1234.73,1264c17.98,13.81,39,22.94,59.14,33.3c1.16,0.59,2.68,0.47,4.06,0.63c-0.17-1.38-0.04-2.9-0.63-4.06
				c-10.36-20.14-19.49-41.16-33.3-59.14c-12.21-15.9-26.49-30.35-46.64-36.59c-7.44-2.31-15.04-4.15-22.62-5.95
				c-0.94-0.22-1.73-0.12-2.26,0.3c-0.42,0.53-0.52,1.31-0.29,2.26c1.81,7.58,3.64,15.18,5.95,22.62
				C1204.38,1237.51,1218.83,1251.79,1234.73,1264z"/>
		</g>
		<g>
			<path d="M919.71,1251.3c0.6,10.52,5.59,19.03,15.02,23.08c13.08,5.62,26.66,6.51,39.29-2.28c9.66-6.72,16.91-15.49,22.45-25.82
				c0.86-1.61,2.27-2.92,3.53-4.31c1.26,1.39,2.67,2.7,3.53,4.31c5.53,10.33,12.78,19.1,22.44,25.82
				c12.64,8.79,26.21,7.9,39.29,2.28c9.42-4.05,14.42-12.57,15.02-23.08c0.25-4.37-1.25-5.54-5.12-3.87
				c-19.32,8.38-34.02,0.73-45.51-12.56c-10.6-12.27-15.83-26.65-18.01-42.43c-1.67-12.13-3.57-24.23-5.28-36.36
				c-0.56-4.03-0.92-8.09-1.21-12.15c-1-14.07-1.85-28.15-2.94-42.22c-0.26-3.3-1.17-6.55-1.89-9.8c-0.06-0.26-0.19-0.5-0.35-0.73
				c-0.16,0.23-0.3,0.47-0.35,0.73c-0.71,3.25-1.63,6.5-1.89,9.8c-1.09,14.07-1.94,28.15-2.94,42.22c-0.28,4.06-0.64,8.12-1.2,12.15
				c-1.7,12.13-3.6,24.23-5.28,36.36c-2.18,15.79-7.41,30.16-18.01,42.43c-11.48,13.29-26.19,20.95-45.51,12.56
				C920.96,1245.76,919.46,1246.92,919.71,1251.3z"/>
			<path d="M979.3,1352.66c2.95,22.48,11.35,43.8,18.27,65.37c0.4,1.24,1.57,2.23,2.42,3.32c0.85-1.09,2.03-2.08,2.42-3.32
				c6.92-21.56,15.32-42.89,18.27-65.37c2.61-19.88,2.73-40.19-7.1-58.85c-3.63-6.89-7.7-13.57-11.79-20.2
				c-0.51-0.83-1.14-1.31-1.8-1.39c-0.66,0.08-1.3,0.56-1.81,1.39c-4.09,6.64-8.16,13.31-11.79,20.2
				C976.57,1312.47,976.7,1332.78,979.3,1352.66z"/>
		</g>
		<g>
			<path d="M765.53,1120.92c-7.01,7.86-9.5,17.41-5.7,26.94c5.28,13.23,14.25,23.45,29.4,26.17c11.58,2.08,22.91,1,34.13-2.38
				c1.75-0.53,3.67-0.46,5.54-0.55c-0.09,1.87-0.02,3.8-0.55,5.54c-3.39,11.21-4.47,22.54-2.39,34.12
				c2.72,15.15,12.95,24.12,26.17,29.4c9.53,3.8,19.08,1.31,26.94-5.7c3.27-2.92,3.03-4.8-0.88-6.35
				c-19.59-7.73-24.57-23.54-23.29-41.06c1.18-16.17,7.65-30.04,17.27-42.74c7.39-9.76,14.61-19.66,21.98-29.44
				c2.45-3.25,5.07-6.37,7.74-9.45c9.24-10.66,18.59-21.21,27.77-31.93c2.15-2.51,3.8-5.46,5.6-8.26c0.14-0.22,0.21-0.48,0.27-0.76
				c-0.28,0.05-0.54,0.12-0.76,0.27c-2.8,1.79-5.75,3.44-8.26,5.59c-10.71,9.18-21.27,18.53-31.93,27.77
				c-3.07,2.67-6.19,5.29-9.44,7.74c-9.78,7.37-19.68,14.58-29.44,21.98c-12.7,9.62-26.57,16.09-42.74,17.27
				c-17.52,1.28-33.33-3.71-41.06-23.3C770.33,1117.89,768.45,1117.65,765.53,1120.92z"/>
			<path d="M736,1234.73c-13.81,17.98-22.94,39-33.3,59.14c-0.6,1.16-0.47,2.68-0.63,4.06c1.38-0.17,2.9-0.04,4.06-0.63
				c20.14-10.35,41.16-19.49,59.14-33.3c15.9-12.21,30.35-26.49,36.59-46.63c2.31-7.44,4.15-15.04,5.95-22.62
				c0.23-0.95,0.12-1.74-0.29-2.26c-0.53-0.41-1.32-0.52-2.26-0.29c-7.58,1.8-15.18,3.64-22.62,5.95
				C762.49,1204.38,748.21,1218.83,736,1234.73z"/>
		</g>
		<g>
			<path d="M748.7,919.71c-10.52,0.6-19.03,5.59-23.08,15.02c-5.62,13.08-6.51,26.66,2.28,39.29c6.72,9.66,15.5,16.91,25.82,22.45
				c1.61,0.86,2.92,2.27,4.31,3.53c-1.39,1.26-2.7,2.67-4.31,3.53c-10.33,5.53-19.1,12.78-25.82,22.44
				c-8.79,12.64-7.9,26.21-2.28,39.3c4.06,9.42,12.57,14.42,23.09,15.02c4.37,0.25,5.54-1.25,3.87-5.12
				c-8.38-19.32-0.73-34.02,12.56-45.5c12.27-10.6,26.65-15.83,42.43-18.01c12.13-1.67,24.23-3.57,36.36-5.28
				c4.03-0.56,8.09-0.91,12.15-1.21c14.07-1,28.15-1.85,42.22-2.94c3.3-0.25,6.55-1.17,9.8-1.89c0.26-0.06,0.49-0.19,0.73-0.35
				c-0.23-0.16-0.47-0.29-0.73-0.35c-3.25-0.71-6.5-1.63-9.8-1.89c-14.07-1.09-28.15-1.94-42.22-2.94
				c-4.06-0.28-8.12-0.64-12.15-1.2c-12.13-1.7-24.23-3.6-36.36-5.28c-15.79-2.18-30.16-7.41-42.43-18.01
				c-13.29-11.48-20.95-26.19-12.56-45.51C754.24,920.96,753.07,919.46,748.7,919.71z"/>
			<path d="M647.34,979.3c-22.48,2.95-43.8,11.35-65.37,18.27c-1.24,0.39-2.23,1.56-3.32,2.42c1.09,0.86,2.08,2.03,3.32,2.42
				c21.56,6.92,42.88,15.32,65.37,18.27c19.87,2.61,40.19,2.73,58.85-7.1c6.89-3.63,13.56-7.7,20.2-11.79
				c0.83-0.51,1.31-1.14,1.39-1.81c-0.08-0.66-0.56-1.3-1.39-1.8c-6.64-4.09-13.31-8.16-20.2-11.79
				C687.53,976.57,667.22,976.7,647.34,979.3z"/>
		</g>
		<g>
			<path d="M879.08,765.53c-7.86-7.01-17.41-9.5-26.94-5.7c-13.23,5.28-23.45,14.24-26.17,29.4c-2.08,11.58-1,22.91,2.38,34.13
				c0.53,1.75,0.46,3.67,0.55,5.54c-1.88-0.09-3.8-0.02-5.55-0.55c-11.21-3.39-22.54-4.47-34.12-2.39
				c-15.15,2.72-24.12,12.95-29.4,26.17c-3.79,9.53-1.3,19.08,5.71,26.94c2.92,3.27,4.8,3.03,6.35-0.88
				c7.73-19.59,23.54-24.57,41.06-23.29c16.17,1.18,30.04,7.65,42.74,17.27c9.76,7.39,19.66,14.61,29.44,21.98
				c3.25,2.45,6.37,5.07,9.44,7.74c10.66,9.24,21.21,18.6,31.93,27.77c2.51,2.15,5.46,3.8,8.26,5.6c0.22,0.14,0.48,0.21,0.76,0.26
				c-0.05-0.28-0.12-0.54-0.27-0.76c-1.79-2.8-3.44-5.75-5.59-8.26c-9.18-10.71-18.53-21.27-27.77-31.93
				c-2.67-3.07-5.29-6.19-7.74-9.44c-7.37-9.78-14.58-19.68-21.98-29.44c-9.62-12.7-16.09-26.57-17.27-42.74
				c-1.28-17.52,3.71-33.33,23.29-41.06C882.11,770.33,882.35,768.45,879.08,765.53z"/>
			<path d="M765.27,736c-17.98-13.81-39-22.94-59.14-33.3c-1.16-0.6-2.68-0.47-4.06-0.63c0.17,1.38,0.03,2.91,0.63,4.06
				c10.36,20.14,19.49,41.16,33.3,59.14c12.21,15.9,26.49,30.35,46.64,36.59c7.44,2.31,15.04,4.15,22.62,5.95
				c0.95,0.23,1.73,0.12,2.26-0.29c0.41-0.52,0.52-1.31,0.29-2.26c-1.8-7.58-3.64-15.18-5.95-22.62
				C795.62,762.49,781.16,748.21,765.27,736z"/>
		</g>
	</g>
	<g>
		<path d="M1090.34,781.89c-0.9,0.5-2.08,0.84-2.54,1.6c-8.69,14.49-20.78,26.04-32.54,37.88c-3.4,3.42-6.61,7.02-9.92,10.53
			c-16.62,17.61-24.02,38.72-24.11,62.71c-0.08,20.36,1.04,40.83-4.59,60.78c-0.17,0.6,0.93,2.2,0.93,2.2c0.8-0.26,1.9-0.36,2.2-0.9
			c10.13-18.1,25.39-31.77,39.73-46.23c16.89-17.03,26.6-37.19,27.29-61.39c0.14-4.82,0.42-9.64,0.43-14.46
			c0.06-16.69-0.33-33.41,3.78-49.8C1091.22,783.95,1090.34,781.89,1090.34,781.89z"/>
		<path d="M1218.11,909.65c-0.99-0.29-2.06-0.88-2.93-0.66c-16.39,4.11-33.11,3.72-49.8,3.78c-4.82,0.02-9.64,0.29-14.46,0.43
			c-24.2,0.7-44.36,10.4-61.39,27.29c-14.45,14.34-28.13,29.61-46.23,39.73c-0.54,0.3-0.9,2.21-0.9,2.21
			c0.75,0.38,1.6,1.09,2.2,0.92c19.96-5.64,40.42-4.51,60.78-4.6c23.99-0.09,45.1-7.49,62.71-24.11c3.5-3.31,7.11-6.52,10.53-9.92
			c11.84-11.76,23.39-23.85,37.88-32.54C1217.27,911.73,1218.11,909.65,1218.11,909.65z"/>
		<path d="M1218.11,1090.34c-0.5-0.9-0.84-2.08-1.6-2.54c-14.5-8.68-26.04-20.78-37.88-32.54c-3.42-3.39-7.02-6.61-10.53-9.92
			c-17.61-16.62-38.72-24.02-62.71-24.11c-20.36-0.08-40.83,1.04-60.78-4.59c-0.6-0.17-2.2,0.92-2.2,0.92
			c0.26,0.8,0.36,1.9,0.9,2.21c18.1,10.13,31.78,25.39,46.23,39.73c17.03,16.89,37.19,26.6,61.39,27.29
			c4.82,0.14,9.64,0.42,14.46,0.43c16.69,0.06,33.41-0.33,49.8,3.78C1216.05,1091.22,1218.11,1090.34,1218.11,1090.34z"/>
		<path d="M1090.35,1218.11c0.29-0.99,0.88-2.06,0.66-2.93c-4.11-16.39-3.72-33.11-3.78-49.8c-0.02-4.82-0.29-9.64-0.43-14.46
			c-0.7-24.2-10.4-44.37-27.29-61.39c-14.34-14.45-29.61-28.13-39.73-46.23c-0.3-0.54-2.21-0.9-2.21-0.9
			c-0.38,0.75-1.09,1.6-0.92,2.19c5.64,19.96,4.51,40.42,4.59,60.79c0.09,23.99,7.49,45.1,24.11,62.71
			c3.31,3.51,6.52,7.11,9.92,10.53c11.76,11.85,23.86,23.39,32.54,37.89C1088.27,1217.27,1090.35,1218.11,1090.35,1218.11z"/>
		<path d="M909.66,1218.11c0.9-0.5,2.08-0.84,2.54-1.6c8.68-14.5,20.78-26.04,32.54-37.88c3.39-3.42,6.61-7.02,9.92-10.53
			c16.62-17.61,24.02-38.73,24.11-62.71c0.08-20.36-1.04-40.83,4.59-60.79c0.17-0.59-0.92-2.19-0.92-2.19
			c-0.8,0.26-1.9,0.36-2.21,0.9c-10.13,18.1-25.39,31.78-39.73,46.23c-16.89,17.03-26.6,37.19-27.29,61.39
			c-0.14,4.82-0.42,9.64-0.43,14.46c-0.06,16.69,0.33,33.41-3.78,49.8C908.78,1216.05,909.66,1218.11,909.66,1218.11z"/>
		<path d="M781.89,1090.35c0.99,0.29,2.06,0.88,2.93,0.67c16.39-4.11,33.11-3.72,49.8-3.78c4.82-0.02,9.64-0.29,14.46-0.43
			c24.2-0.7,44.37-10.4,61.39-27.29c14.45-14.34,28.13-29.61,46.23-39.73c0.54-0.3,0.9-2.21,0.9-2.21c-0.75-0.38-1.6-1.09-2.19-0.92
			c-19.96,5.64-40.42,4.51-60.79,4.6c-23.98,0.09-45.1,7.49-62.71,24.11c-3.51,3.31-7.11,6.52-10.53,9.92
			c-11.85,11.76-23.39,23.85-37.88,32.54C782.73,1088.27,781.89,1090.35,781.89,1090.35z"/>
		<path d="M781.89,909.66c0.5,0.91,0.84,2.08,1.6,2.54c14.5,8.69,26.04,20.78,37.88,32.54c3.42,3.39,7.02,6.61,10.53,9.92
			c17.61,16.62,38.72,24.02,62.71,24.11c20.36,0.08,40.83-1.04,60.79,4.59c0.6,0.17,2.19-0.93,2.19-0.93
			c-0.26-0.8-0.35-1.9-0.9-2.21c-18.1-10.12-31.78-25.39-46.23-39.73c-17.03-16.89-37.19-26.59-61.39-27.29
			c-4.82-0.14-9.64-0.42-14.46-0.43c-16.69-0.06-33.41,0.33-49.8-3.78C783.95,908.78,781.89,909.66,781.89,909.66z"/>
		<path d="M909.66,781.89c-0.29,0.99-0.88,2.06-0.66,2.93c4.11,16.39,3.72,33.11,3.78,49.8c0.02,4.82,0.29,9.64,0.43,14.46
			c0.7,24.2,10.4,44.36,27.29,61.39c14.34,14.45,29.61,28.13,39.73,46.23c0.3,0.54,2.2,0.9,2.2,0.9c0.38-0.75,1.09-1.6,0.92-2.19
			c-5.64-19.96-4.51-40.43-4.6-60.79c-0.09-23.98-7.49-45.1-24.11-62.71c-3.31-3.51-6.52-7.11-9.92-10.53
			c-11.76-11.85-23.86-23.39-32.54-37.88C911.73,782.73,909.66,781.89,909.66,781.89z"/>
	</g>
	<path class="st0" d="M1018.9,999.62c0.1,11.15-7.44,19.11-18.31,19.3c-10.57,0.19-19.19-8.03-19.48-18.59
		c-0.29-10.36,8.23-19.08,18.81-19.25C1011.02,980.9,1018.79,988.49,1018.9,999.62z"/>
</g>
</svg>
